<?xml version="1.0" encoding="UTF-8"?>
<svg width="315px" height="23px" viewBox="0 0 315 23" version="1.1" xmlns="http://www.w3.org/2000/svg" xmlns:xlink="http://www.w3.org/1999/xlink">
    <title>DBCAC43A-918B-41BE-B67D-12522E07C5AB</title>
    <defs>
        <polygon id="path-1" points="0 22.2239264 315 22.2239264 315 0 0 0"></polygon>
    </defs>
    <g id="Page-1" stroke="none" stroke-width="1" fill="none" fill-rule="evenodd">
        <g id="Awards-hunday-widget" transform="translate(-48.000000, -79.000000)">
            <g id="Group-45" transform="translate(48.000000, 79.000000)">
                <path d="M314.234633,5.4298087 L314.234633,8.71639401 C313.815439,8.71639401 313.415254,8.7443641 313.037515,8.79732875 C312.656338,8.8502934 312.303876,8.95304878 311.979926,9.10579327 C311.652943,9.25536385 311.370245,9.47019798 311.128799,9.74434458 C310.887555,10.0153173 310.700101,10.3735725 310.56037,10.8159364 L310.56037,17.6850743 L307.000561,17.6850743 L307.000561,5.72577594 L310.56037,5.72577594 L310.56037,7.43909302 C310.916068,6.80054171 311.367009,6.30521315 311.910161,5.95628126 C312.449875,5.60417546 313.088271,5.4298087 313.815439,5.4298087 L314.234633,5.4298087 Z" id="Fill-1" fill="#FFFFFF"></path>
                <path d="M296.651212,10.1524699 L301.675064,10.1524699 C301.595593,9.51391861 301.347879,9.03723678 300.928685,8.71627499 C300.512727,8.39551156 299.953802,8.23661762 299.255146,8.23661762 C298.604213,8.23661762 298.058028,8.39551156 297.616591,8.71627499 C297.175154,9.03723678 296.851204,9.51391861 296.651212,10.1524699 M304.710931,8.87516893 C304.98089,9.59167944 305.117385,10.3829752 305.117385,11.2490563 C305.117385,11.4609149 305.104646,11.7132409 305.082402,12.0028603 C305.060158,12.2926781 305.031646,12.5200095 304.999898,12.6850529 L296.533725,12.6850529 C296.673456,13.3704194 297.000641,13.9343838 297.511843,14.3735738 C298.023045,14.8159377 298.791668,15.0371197 299.814071,15.0371197 C300.512727,15.0371197 301.128879,14.8720763 301.662324,14.544965 C302.199005,14.2178538 302.621435,13.865748 302.929409,13.4856721 L304.815679,15.7909236 C304.27273,16.3828581 303.561334,16.9000073 302.68493,17.3423712 C301.81156,17.7815612 300.789156,18.0027432 299.626819,18.0027432 C298.604213,18.0027432 297.686558,17.8408737 296.870414,17.5137624 C296.057304,17.1866512 295.361884,16.7379395 294.790219,16.1648501 C294.215522,15.5947362 293.77732,14.9311904 293.475614,14.1710386 C293.173908,13.4079112 293.021437,12.6041182 293.021437,11.7505343 C293.021437,10.8066924 293.177143,9.94695915 293.488353,9.17113617 C293.796328,8.39551156 294.231497,7.7319657 294.790219,7.17752304 C295.349144,6.61990647 296.006548,6.18984147 296.765464,5.88772477 C297.527616,5.58243416 298.356499,5.42988804 299.255146,5.42988804 C300.153996,5.42988804 300.963669,5.56993689 301.684568,5.85340685 C302.408703,6.13390128 303.024653,6.52944999 303.536057,7.04044974 C304.047259,7.5480772 304.437738,8.16183233 304.710931,8.87516893" id="Fill-3" fill="#FFFFFF"></path>
                <path d="M287.578493,13.3922995 L287.578493,10.0402523 C287.315005,9.5387743 286.930593,9.15254895 286.428895,8.88772572 C285.923962,8.62290248 285.393752,8.48900309 284.834827,8.48900309 C283.948717,8.48900309 283.21528,8.76314969 282.624607,9.30826898 C282.033935,9.85656219 281.741733,10.6571814 281.741733,11.7037787 C281.741733,12.7537482 282.033935,13.5543674 282.624607,14.1026606 C283.21528,14.6477799 283.948717,14.9219265 284.834827,14.9219265 C285.393752,14.9219265 285.923962,14.7910027 286.428895,14.5232039 C286.930593,14.2583806 287.315005,13.8814787 287.578493,13.3922995 L287.578493,13.3922995 Z M291.138301,1.48279192 L291.138301,17.6850148 L287.578493,17.6850148 L287.578493,16.4513551 C287.143526,16.893719 286.622618,17.2583221 286.009702,17.5479415 C285.396785,17.8345854 284.710869,17.980982 283.948717,17.980982 C283.113565,17.980982 282.338674,17.8314115 281.624245,17.5354442 C280.909614,17.2396753 280.293665,16.8191321 279.775992,16.2801622 C279.255286,15.7411924 278.851865,15.083796 278.566134,14.3049975 C278.277168,13.5293729 278.134201,12.6632918 278.134201,11.7037787 C278.134201,10.7474395 278.277168,9.88135837 278.566134,9.10573376 C278.851865,8.32693524 279.255286,7.6697372 279.775992,7.13076736 C280.293665,6.59179752 280.909614,6.17125425 281.624245,5.87528701 C282.338674,5.57931976 283.113565,5.42974919 283.948717,5.42974919 C284.710869,5.42974919 285.396785,5.57614585 286.009702,5.86278973 C286.622618,6.15260752 287.143526,6.52633559 287.578493,6.98119678 L287.578493,1.48279192 L291.138301,1.48279192 Z" id="Fill-5" fill="#FFFFFF"></path>
                <mask id="mask-2" fill="white">
                    <use xlink:href="#path-1"></use>
                </mask>
                <g id="Clip-8"></g>
                <polygon id="Fill-7" fill="#FFFFFF" mask="url(#mask-2)" points="272.694209 3.16498483 276.250985 3.16498483 276.250985 0.753803971 272.694209 0.753803971"></polygon>
                <polygon id="Fill-9" fill="#FFFFFF" mask="url(#mask-2)" points="272.694209 17.6850346 276.250985 17.6850346 276.250985 5.72573627 272.694209 5.72573627"></polygon>
                <path d="M265.727042,8.13380272 C266.044521,7.83783548 266.203463,7.42978949 266.203463,6.91264029 C266.203463,6.39549109 266.044521,5.99061901 265.727042,5.69147786 C265.409563,5.39551062 264.923638,5.24911395 264.272503,5.24911395 L260.969913,5.24911395 L260.969913,8.57934054 L264.272503,8.57934054 C264.923638,8.57934054 265.409563,8.42976997 265.727042,8.13380272 L265.727042,8.13380272 Z M271.554298,17.6164583 L271.554298,17.6850941 L267.251346,17.6850941 L262.85315,11.6602167 L260.969913,11.6602167 L260.969913,17.6850941 L257.34034,17.6850941 L257.34034,2.16823777 L264.669655,2.16823777 C265.428572,2.16823777 266.130261,2.27714261 266.771892,2.49832457 C267.416556,2.71950652 267.975481,3.03412049 268.448464,3.4453404 C268.921649,3.8565603 269.290086,4.35506277 269.553574,4.94064943 C269.817263,5.52643446 269.94749,6.1836325 269.94749,6.91264029 C269.94749,8.02469952 269.652053,8.96239198 269.064616,9.73186714 C268.473943,10.5013423 267.692783,11.0434861 266.714665,11.3642495 L271.554298,17.6164583 Z" id="Fill-10" fill="#FFFFFF" mask="url(#mask-2)"></path>
                <path d="M246.292254,13.3922995 L246.292254,10.0402523 C246.028767,9.5387743 245.644354,9.15254895 245.142657,8.88772572 C244.637723,8.62290248 244.107513,8.48900309 243.548589,8.48900309 C242.665714,8.48900309 241.929041,8.76314969 241.338369,9.30826898 C240.747696,9.85656219 240.455494,10.6571814 240.455494,11.7037787 C240.455494,12.7537482 240.747696,13.5543674 241.338369,14.1026606 C241.929041,14.6477799 242.665714,14.9219265 243.548589,14.9219265 C244.107513,14.9219265 244.637723,14.7910027 245.142657,14.5232039 C245.644354,14.2583806 246.028767,13.8814787 246.292254,13.3922995 L246.292254,13.3922995 Z M249.852063,1.48279192 L249.852063,17.6850148 L246.292254,17.6850148 L246.292254,16.4513551 C245.857288,16.893719 245.336379,17.2583221 244.723463,17.5479415 C244.110547,17.8345854 243.42463,17.980982 242.665714,17.980982 C241.827327,17.980982 241.052436,17.8314115 240.338007,17.5354442 C239.623376,17.2396753 239.007426,16.8191321 238.489753,16.2801622 C237.969047,15.7411924 237.565627,15.083796 237.279896,14.3049975 C236.993962,13.5293729 236.847963,12.6632918 236.847963,11.7037787 C236.847963,10.7474395 236.993962,9.88135837 237.279896,9.10573376 C237.565627,8.32693524 237.969047,7.6697372 238.489753,7.13076736 C239.007426,6.59179752 239.623376,6.17125425 240.338007,5.87528701 C241.052436,5.57931976 241.827327,5.42974919 242.665714,5.42974919 C243.42463,5.42974919 244.110547,5.57614585 244.723463,5.86278973 C245.336379,6.15260752 245.857288,6.52633559 246.292254,6.98119678 L246.292254,1.48279192 L249.852063,1.48279192 Z" id="Fill-11" fill="#FFFFFF" mask="url(#mask-2)"></path>
                <path d="M227.127383,10.1524699 L232.151235,10.1524699 C232.071764,9.51391861 231.82405,9.03723678 231.408092,8.71627499 C230.988898,8.39551156 230.429974,8.23661762 229.731318,8.23661762 C229.080385,8.23661762 228.5342,8.39551156 228.092762,8.71627499 C227.651325,9.03723678 227.327375,9.51391861 227.127383,10.1524699 M235.593557,11.2490563 C235.593557,11.4609149 235.580817,11.7132409 235.558573,12.0028603 C235.53633,12.2926781 235.507817,12.5200095 235.476069,12.6850529 L227.009896,12.6850529 C227.149627,13.3704194 227.476813,13.9343838 227.988014,14.3735738 C228.499216,14.8159377 229.267839,15.0371197 230.290242,15.0371197 C230.988898,15.0371197 231.60505,14.8720763 232.138496,14.544965 C232.675177,14.2178538 233.097606,13.865748 233.408816,13.4856721 L235.291851,15.7909236 C234.748901,16.3828581 234.037505,16.9000073 233.164337,17.3423712 C232.287731,17.7815612 231.268361,18.0027432 230.10299,18.0027432 C229.080385,18.0027432 228.162729,17.8408737 227.346586,17.5137624 C226.533475,17.1866512 225.84129,16.7379395 225.266391,16.1648501 C224.691693,15.5947362 224.253491,14.9311904 223.951785,14.1710386 C223.650079,13.4079112 223.497608,12.6041182 223.497608,11.7505343 C223.497608,10.8066924 223.653314,9.94695915 223.964525,9.17113617 C224.272499,8.39551156 224.707668,7.7319657 225.266391,7.17752304 C225.825315,6.61990647 226.482719,6.18984147 227.244871,5.88772477 C228.003787,5.58243416 228.83267,5.42988804 229.731318,5.42988804 C230.630167,5.42988804 231.443075,5.56993689 232.163975,5.85340685 C232.884875,6.13390128 233.500824,6.52944999 234.012228,7.04044974 C234.52343,7.5480772 234.913909,8.16183233 235.187103,8.87516893 C235.457061,9.59167944 235.593557,10.3829752 235.593557,11.2490563" id="Fill-12" fill="#FFFFFF" mask="url(#mask-2)"></path>
                <path d="M222.6847,5.4298087 L222.6847,8.71639401 C222.265507,8.71639401 221.865321,8.7443641 221.48738,8.79732875 C221.106405,8.8502934 220.753943,8.95304878 220.429993,9.10579327 C220.10301,9.25536385 219.820312,9.47019798 219.578866,9.74434458 C219.337623,10.0153173 219.150168,10.3735725 219.010437,10.8159364 L219.010437,17.6850743 L215.450629,17.6850743 L215.450629,5.72577594 L219.010437,5.72577594 L219.010437,7.43909302 C219.366135,6.80054171 219.817076,6.30521315 220.360228,5.95628126 C220.899943,5.60417546 221.538338,5.4298087 222.265507,5.4298087 L222.6847,5.4298087 Z" id="Fill-13" fill="#FFFFFF" mask="url(#mask-2)"></path>
                <polygon id="Fill-14" fill="#FFFFFF" mask="url(#mask-2)" points="209.378995 3.16498483 212.938804 3.16498483 212.938804 0.753803971 209.378995 0.753803971"></polygon>
                <polygon id="Fill-15" fill="#FFFFFF" mask="url(#mask-2)" points="209.378995 17.6850346 212.938804 17.6850346 212.938804 5.72573627 209.378995 5.72573627"></polygon>
                <path d="M203.891381,11.7038382 C203.891381,10.6570425 203.595944,9.85642333 203.008507,9.30832849 C202.417834,8.76301083 201.681161,8.48886423 200.798287,8.48886423 C200.239362,8.48886423 199.702681,8.62296199 199.191479,8.88758686 C198.680277,9.15241009 198.2991,9.53883381 198.051386,10.0403118 L198.051386,13.3923591 C198.2991,13.8813398 198.680277,14.2582418 199.191479,14.523065 C199.702681,14.7910622 200.239362,14.9217876 200.798287,14.9217876 C201.681161,14.9217876 202.417834,14.647641 203.008507,14.1025217 C203.595944,13.5542285 203.891381,12.7536094 203.891381,11.7038382 M207.06698,9.10579327 C207.352711,9.88141788 207.495677,10.747499 207.495677,11.7038382 C207.495677,12.6633513 207.352711,13.5294324 207.06698,14.305057 C206.778013,15.0838555 206.374795,15.7412519 205.857122,16.2800234 C205.336214,16.8189932 204.720264,17.2395365 204.008869,17.5355037 C203.29444,17.831471 202.519549,17.9810415 201.681161,17.9810415 C200.922245,17.9810415 200.229858,17.8346449 199.610673,17.548001 C198.991488,17.2581832 198.47058,16.8937785 198.051386,16.4514146 L198.051386,21.4699637 L194.494813,21.4699637 L194.494813,5.72577594 L198.051386,5.72577594 L198.051386,6.98125629 C198.47058,6.5263951 198.991488,6.15246866 199.610673,5.86284924 C200.229858,5.57620536 200.922245,5.4298087 201.681161,5.4298087 C202.519549,5.4298087 203.29444,5.57937927 204.008869,5.87534652 C204.720264,6.17131376 205.336214,6.59185703 205.857122,7.1306285 C206.374795,7.66959834 206.778013,8.32699475 207.06698,9.10579327" id="Fill-16" fill="#FFFFFF" mask="url(#mask-2)"></path>
                <path d="M191.646197,11.4079106 C192.319374,12.0621331 192.656063,12.9218664 192.656063,13.9873088 C192.656063,14.535602 192.541812,15.0527512 192.306634,15.5387564 C192.074895,16.0245632 191.725668,16.4546282 191.261987,16.8283563 C190.795071,17.2022827 190.220373,17.495076 189.540725,17.7069346 C188.858044,17.9187932 188.06738,18.0247225 187.168531,18.0247225 C186.034908,18.0247225 185.037782,17.8158395 184.177151,17.3984701 C183.31652,16.9811007 182.592587,16.4514543 182.004948,15.812903 L183.840461,13.5979095 C184.243882,14.0557462 184.755084,14.4421699 185.377504,14.7629334 C185.996689,15.0838952 186.641354,15.2427891 187.308262,15.2427891 C187.863951,15.2427891 188.305388,15.1461832 188.632574,14.9561452 C188.959557,14.7661073 189.121532,14.5199308 189.121532,14.2146402 C189.121532,13.8813795 188.985036,13.6447247 188.715078,13.5076514 C188.442086,13.3705781 188.06738,13.2646488 187.584489,13.1898635 L186.469875,13.005975 C185.30774,12.8097876 184.405857,12.3922199 183.770697,11.7629919 C183.135537,11.1305901 182.818058,10.3144981 182.818058,9.3081698 C182.818058,8.76305051 182.93231,8.25224913 183.167285,7.78171676 C183.399024,7.30820884 183.732478,6.90016285 184.167647,6.54825542 C184.59958,6.19932353 185.126554,5.92517693 185.748975,5.72581561 C186.368362,5.52942984 187.073287,5.42984837 187.863951,5.42984837 C188.842069,5.42984837 189.689961,5.59806568 190.41086,5.93132638 C191.13176,6.26776099 191.719197,6.6789809 192.167105,7.16498609 L190.401356,9.37680563 C190.013911,9.01240093 189.597952,8.72873259 189.156515,8.52322182 C188.715078,8.31771106 188.229153,8.2147573 187.702178,8.2147573 C187.251237,8.2147573 186.914547,8.29886596 186.689077,8.46410772 C186.466841,8.63232503 186.352387,8.84715916 186.352387,9.10583294 C186.352387,9.54502294 186.685841,9.81916954 187.352749,9.92509884 L188.470599,10.108789 C189.912398,10.3206476 190.969785,10.7536881 191.646197,11.4079106" id="Fill-17" fill="#FFFFFF" mask="url(#mask-2)"></path>
                <path d="M311.487732,5.3269938 C312.15464,4.89712717 312.939036,4.67911913 313.815439,4.67911913 L314.234633,4.67911913 L315.00002,4.67911913 L315.00002,5.42974919 L315.00002,8.7163345 L315.00002,9.46716293 L314.234633,9.46716293 C313.853658,9.46716293 313.488456,9.49195911 313.145498,9.5387743 C312.843792,9.58241559 312.561094,9.66335033 312.307111,9.7817769 C312.078405,9.89088011 311.881447,10.0372768 311.709968,10.2334642 C311.557497,10.4078309 311.427472,10.6415102 311.325757,10.9343035 L311.325757,17.6850148 L311.325757,18.4358432 L310.56037,18.4358432 L307.000561,18.4358432 L306.235174,18.4358432 L306.235174,17.6850148 L306.235174,5.72571643 L306.235174,4.974888 L307.000561,4.974888 L310.56037,4.974888 L311.325757,4.974888 L311.325757,5.43609701 C311.379749,5.39860518 311.433741,5.36131172 311.487732,5.3269938 M311.910161,5.95622175 C311.367009,6.30515364 310.916068,6.8004822 310.56037,7.43903351 L310.56037,5.72571643 L307.000561,5.72571643 L307.000561,17.6850148 L310.56037,17.6850148 L310.56037,10.8160753 C310.700101,10.3737114 310.887555,10.0154561 311.128799,9.74428507 C311.370245,9.47013847 311.652943,9.25530434 311.979926,9.10573376 C312.303876,8.95318764 312.656338,8.85023389 313.037515,8.79726924 C313.415254,8.74430459 313.815439,8.7163345 314.234633,8.7163345 L314.234633,5.42974919 L313.815439,5.42974919 C313.088271,5.42974919 312.449875,5.60431432 311.910161,5.95622175" id="Fill-18" fill="#040602" mask="url(#mask-2)"></path>
                <path d="M300.928786,8.71635433 C301.34798,9.03731613 301.595694,9.51379959 301.675165,10.1525493 L296.651313,10.1525493 C296.851305,9.51379959 297.175255,9.03731613 297.616692,8.71635433 C298.057927,8.39539254 298.604315,8.23669697 299.255248,8.23669697 C299.953903,8.23669697 300.512828,8.39539254 300.928786,8.71635433 M300.458837,9.30828882 C300.179374,9.09643023 299.775953,8.98732702 299.255248,8.98732702 C298.766289,8.98732702 298.378844,9.09643023 298.070667,9.3207861 C298.035886,9.34558228 298.000902,9.37375074 297.969154,9.40172084 L300.563584,9.40172084 C300.531836,9.36740292 300.496853,9.33943283 300.458837,9.30828882" id="Fill-19" fill="#040602" mask="url(#mask-2)"></path>
                <path d="M294.244115,6.64785673 C294.872804,6.02160432 295.625452,5.53262359 296.476579,5.18984115 C297.32447,4.850431 298.261336,4.67903978 299.255227,4.67903978 C300.249321,4.67903978 301.160708,4.83793372 301.97038,5.15572161 C302.786524,5.47350949 303.497919,5.93134622 304.082121,6.51078343 C304.666525,7.09637009 305.120702,7.80355724 305.428677,8.61349977 C305.730383,9.41114339 305.882853,10.2958712 305.882853,11.2490365 C305.882853,11.4795418 305.870114,11.7536884 305.844635,12.0621529 C305.819155,12.3767669 305.790643,12.625919 305.75566,12.8223047 L305.641408,13.4390354 L304.999979,13.4390354 L303.875861,13.4390354 L305.412701,15.3205698 L305.819155,15.8158983 L305.384189,16.2925802 C304.780777,16.9497782 303.990113,17.5292154 303.037473,18.0090712 C302.052884,18.5043997 300.906522,18.7535518 299.6269,18.7535518 C298.509051,18.7535518 297.483209,18.5698616 296.581326,18.2084325 C295.673175,17.8440278 294.888779,17.333028 294.244115,16.6944767 C293.599451,16.0527515 293.100989,15.2957736 292.761064,14.4421898 C292.424576,13.5979293 292.256131,12.6913809 292.256131,11.7505145 C292.256131,10.7164145 292.430845,9.75690137 292.773803,8.89696973 C293.119997,8.03108701 293.615426,7.27410913 294.244115,6.64785673 M296.765545,5.88770493 C296.006629,6.18982163 295.349225,6.61988663 294.7903,7.1775032 C294.231375,7.73194586 293.796409,8.39549172 293.488232,9.17111634 C293.177022,9.94693932 293.021518,10.8066726 293.021518,11.7505145 C293.021518,12.6040983 293.173988,13.4078914 293.475695,14.1710187 C293.777401,14.9311705 294.215603,15.5947164 294.7903,16.1648302 C295.361965,16.738118 296.057385,17.1866313 296.870293,17.5137426 C297.686436,17.8408538 298.604294,18.0027233 299.6269,18.0027233 C300.789035,18.0027233 301.811641,17.7815414 302.685011,17.3423514 C303.561415,16.8999875 304.27281,16.3828383 304.81576,15.7911022 L302.92949,13.4858506 C302.621313,13.8657281 302.199086,14.2178339 301.662405,14.5449452 C301.12896,14.8720564 300.512808,15.0370998 299.814152,15.0370998 C298.791546,15.0370998 298.023126,14.8159179 297.511924,14.3735539 C297.00052,13.934364 296.673537,13.3703996 296.533806,12.6852314 L304.999979,12.6852314 C305.031727,12.5199897 305.060239,12.2926583 305.082483,12.0028405 C305.104727,11.713221 305.117466,11.4608951 305.117466,11.2490365 C305.117466,10.3829554 304.980971,9.5916596 304.711012,8.87514909 C304.437819,8.16181249 304.04734,7.54805736 303.535936,7.0404299 C303.024734,6.52943016 302.408582,6.13388144 301.684649,5.85338702 C300.963749,5.56991705 300.153875,5.42986821 299.255227,5.42986821 C298.35658,5.42986821 297.527697,5.58241433 296.765545,5.88770493 M301.258985,13.9093694 C301.503666,13.7568233 301.722666,13.6011032 301.913153,13.4390354 L297.670663,13.4390354 C297.769143,13.5729348 297.883395,13.6975108 298.016655,13.8097879 C298.382059,14.1244019 298.985269,14.2862714 299.814152,14.2862714 C300.369841,14.2862714 300.843027,14.1616954 301.258985,13.9093694" id="Fill-20" fill="#040602" mask="url(#mask-2)"></path>
                <path d="M284.834746,14.1710981 C285.266679,14.1710981 285.669898,14.0683427 286.063815,13.8626336 C286.381293,13.6944162 286.625773,13.4732343 286.813227,13.1897643 L286.813227,10.2366381 C286.625773,9.94384475 286.381293,9.71631498 286.063815,9.54809767 C285.669898,9.3425869 285.266679,9.23963315 284.834746,9.23963315 C284.14883,9.23963315 283.596174,9.44216837 283.151703,9.85656219 C282.716535,10.2584587 282.507039,10.8626921 282.507039,11.7037787 C282.507039,12.5480391 282.716535,13.1524709 283.151703,13.5543674 C283.596174,13.9685628 284.14883,14.1710981 284.834746,14.1710981 M282.624526,9.30826898 C283.215199,8.76314969 283.948838,8.48900309 284.834746,8.48900309 C285.393671,8.48900309 285.923881,8.62290248 286.428814,8.88772572 C286.930714,9.15254895 287.314924,9.5387743 287.578412,10.0402523 L287.578412,13.3922995 C287.314924,13.8814787 286.930714,14.2583806 286.428814,14.5232039 C285.923881,14.7910027 285.393671,14.9219265 284.834746,14.9219265 C283.948838,14.9219265 283.215199,14.6477799 282.624526,14.1026606 C282.033854,13.5543674 281.741652,12.7537482 281.741652,11.7037787 C281.741652,10.6571814 282.033854,9.85656219 282.624526,9.30826898" id="Fill-21" fill="#040602" mask="url(#mask-2)"></path>
                <path d="M277.368875,11.7038382 C277.368875,10.6633903 277.530849,9.7007033 277.845295,8.84711949 C278.16601,7.97806286 278.629488,7.22723443 279.217128,6.6134793 C279.807801,5.99992254 280.515961,5.5200668 281.325633,5.18363219 C282.129037,4.84719757 283.011911,4.67898027 283.948778,4.67898027 C284.822148,4.67898027 285.625552,4.85037149 286.339981,5.1868061 C286.501956,5.2647653 286.660695,5.34570004 286.813166,5.43298261 L286.813166,1.48285143 L286.813166,0.732023003 L287.578553,0.732023003 L291.138362,0.732023003 L291.903749,0.732023003 L291.903749,1.48285143 L291.903749,17.6850743 L291.903749,18.4359027 L291.138362,18.4359027 L287.578553,18.4359027 L286.813166,18.4359027 L286.813166,17.9778676 C286.660695,18.0651502 286.501956,18.1492589 286.339981,18.2240441 C285.625552,18.5604788 284.822148,18.7316716 283.948778,18.7316716 C283.011911,18.7316716 282.129037,18.5634543 281.325633,18.2270197 C280.515961,17.8905851 279.807801,17.4109277 279.217128,16.7971726 C278.629488,16.1836158 278.16601,15.4327874 277.845295,14.5635324 C277.530849,13.7099486 277.368875,12.7474599 277.368875,11.7038382 M286.009762,5.86284924 C285.396846,5.57620536 284.710929,5.4298087 283.948778,5.4298087 C283.113626,5.4298087 282.338735,5.57937927 281.624104,5.87534652 C280.909675,6.17131376 280.293523,6.59185703 279.776053,7.1306285 C279.255144,7.66959834 278.851926,8.32699475 278.565993,9.10579327 C278.277026,9.88141788 278.134262,10.747499 278.134262,11.7038382 C278.134262,12.6633513 278.277026,13.5294324 278.565993,14.305057 C278.851926,15.0838555 279.255144,15.7412519 279.776053,16.2800234 C280.293523,16.8189932 280.909675,17.2395365 281.624104,17.5355037 C282.338735,17.831471 283.113626,17.9810415 283.948778,17.9810415 C284.710929,17.9810415 285.396846,17.8346449 286.009762,17.548001 C286.622679,17.2581832 287.143385,16.8937785 287.578553,16.4514146 L287.578553,17.6850743 L291.138362,17.6850743 L291.138362,1.48285143 L287.578553,1.48285143 L287.578553,6.98125629 C287.143385,6.5263951 286.622679,6.15246866 286.009762,5.86284924" id="Fill-22" fill="#040602" mask="url(#mask-2)"></path>
                <path d="M277.016392,0.753863482 L277.016392,3.16504434 L277.016392,3.91587277 L276.251005,3.91587277 L272.694432,3.91587277 L271.925809,3.91587277 L271.925809,3.16504434 L271.925809,0.753863482 L271.925809,5.95108398e-05 L272.694432,5.95108398e-05 L276.251005,5.95108398e-05 L277.016392,5.95108398e-05 L277.016392,0.753863482 Z M272.694229,3.16504434 L276.251005,3.16504434 L276.251005,0.753863482 L272.694229,0.753863482 L272.694229,3.16504434 Z" id="Fill-23" fill="#040602" mask="url(#mask-2)"></path>
                <path d="M266.714685,11.3642892 C267.692803,11.0433274 268.473963,10.501382 269.064636,9.73190682 C269.652073,8.96243166 269.947511,8.02473919 269.947511,6.91267997 C269.947511,6.18367218 269.817283,5.52647414 269.553594,4.9406891 C269.290107,4.35510244 268.921669,3.85659997 268.448484,3.44538007 C267.975299,3.03416017 267.416576,2.71954619 266.771912,2.49836424 C266.130281,2.27718228 265.428592,2.16807908 264.669473,2.16807908 L257.340158,2.16807908 L257.340158,17.6851338 L260.969933,17.6851338 L260.969933,11.6602564 L262.85317,11.6602564 L267.251366,17.6851338 L271.554318,17.6851338 L271.554318,17.616498 L266.714685,11.3642892 Z M264.669473,1.41744902 C265.511096,1.41744902 266.30176,1.54202504 267.025895,1.78820155 C267.759534,2.04052751 268.410467,2.40810613 268.956653,2.88161405 C269.509309,3.36444533 269.947511,3.9532059 270.255485,4.6353985 C270.560427,5.31461555 270.715931,6.08091679 270.715931,6.91267997 C270.715931,8.18680705 270.366704,9.28636899 269.677552,10.1835941 C269.201132,10.8034987 268.610459,11.3020011 267.915039,11.6695798 L271.925789,16.8533706 L271.925789,5.72583545 L271.925789,4.97500702 L272.694411,4.97500702 L276.250985,4.97500702 L277.016372,4.97500702 L277.016372,5.72583545 L277.016372,17.6851338 L277.016372,18.4357639 L276.250985,18.4357639 L272.694411,18.4357639 L272.319705,18.4357639 L271.925789,18.4357639 L271.554318,18.4357639 L267.251366,18.4357639 L266.857652,18.4357639 L266.62571,18.1211499 L262.459253,12.4110848 L261.735321,12.4110848 L261.735321,17.6851338 L261.735321,18.4357639 L260.969933,18.4357639 L257.340158,18.4357639 L256.574973,18.4357639 L256.574973,17.6851338 L256.574973,2.16807908 L256.574973,1.41744902 L257.340158,1.41744902 L264.669473,1.41744902 Z M272.694209,17.6851338 L276.250985,17.6851338 L276.250985,5.72583545 L272.694209,5.72583545 L272.694209,17.6851338 Z" id="Fill-24" fill="#040602" mask="url(#mask-2)"></path>
                <path d="M266.203382,6.91264029 C266.203382,7.42978949 266.044643,7.83783548 265.726961,8.13380272 C265.409482,8.42976997 264.923558,8.57934054 264.272625,8.57934054 L260.970034,8.57934054 L260.970034,5.24911395 L264.272625,5.24911395 C264.923558,5.24911395 265.409482,5.39551062 265.726961,5.69147786 C266.044643,5.99061901 266.203382,6.39549109 266.203382,6.91264029 M265.437995,6.91264029 C265.437995,6.50756984 265.301499,6.33320308 265.199784,6.23659715 C264.987053,6.04040975 264.577364,5.99994238 264.272625,5.99994238 L261.735219,5.99994238 L261.735219,7.82851212 L264.272625,7.82851212 C264.577364,7.82851212 264.987053,7.78487083 265.196751,7.58868343 C265.301499,7.49525141 265.437995,7.32068628 265.437995,6.91264029" id="Fill-25" fill="#040602" mask="url(#mask-2)"></path>
                <path d="M241.865445,9.85652251 C241.430478,10.2584191 241.22078,10.8626524 241.22078,11.7039374 C241.22078,12.5479994 241.430478,13.1524312 241.865445,13.5543277 C242.310117,13.9685232 242.862571,14.1710584 243.548488,14.1710584 C243.980421,14.1710584 244.383639,14.068303 244.777556,13.8625939 C245.095035,13.6943766 245.342749,13.4731946 245.526968,13.1897247 L245.526968,10.2365984 C245.342749,9.94380508 245.095035,9.7162753 244.777556,9.54805799 C244.383639,9.34254723 243.980421,9.23979184 243.548488,9.23979184 C242.862571,9.23979184 242.310117,9.4421287 241.865445,9.85652251 M240.455393,11.7039374 C240.455393,10.6571417 240.747595,9.85652251 241.338268,9.30822931 C241.92894,8.76311002 242.665613,8.48896342 243.548488,8.48896342 C244.107412,8.48896342 244.637825,8.62286281 245.142758,8.88768604 C245.644455,9.15250928 246.028666,9.53873463 246.292153,10.040411 L246.292153,13.3922599 C246.028666,13.881439 245.644455,14.258341 245.142758,14.5231642 C244.637825,14.790963 244.107412,14.9218868 243.548488,14.9218868 C242.665613,14.9218868 241.92894,14.6477402 241.338268,14.1026209 C240.747595,13.5543277 240.455393,12.7537086 240.455393,11.7039374" id="Fill-26" fill="#040602" mask="url(#mask-2)"></path>
                <path d="M231.408132,8.71635433 C231.82409,9.03731613 232.071805,9.51379959 232.151276,10.1525493 L227.127424,10.1525493 C227.327415,9.51379959 227.651365,9.03731613 228.092803,8.71635433 C228.53424,8.39539254 229.080425,8.23669697 229.731358,8.23669697 C230.430014,8.23669697 230.988939,8.39539254 231.408132,8.71635433 M230.934947,9.30828882 C230.65872,9.09643023 230.252266,8.98732702 229.731358,8.98732702 C229.245636,8.98732702 228.85819,9.09643023 228.54698,9.3207861 C228.511996,9.34558228 228.477013,9.37375074 228.445265,9.40172084 L231.039695,9.40172084 C231.007947,9.36740292 230.973166,9.33943283 230.934947,9.30828882" id="Fill-27" fill="#040602" mask="url(#mask-2)"></path>
                <path d="M214.685302,17.6850545 L214.685302,5.7257561 L214.685302,4.97492767 L215.450689,4.97492767 L219.010498,4.97492767 L219.775885,4.97492767 L219.775885,5.43593831 C219.829877,5.39864485 219.883868,5.36135139 219.93786,5.32703348 C220.604566,4.89716684 221.388961,4.67896043 222.265567,4.67896043 L222.684761,4.67896043 L223.449946,4.67896043 L223.449946,5.42978886 L223.449946,8.45770039 C223.780367,7.77550779 224.202593,7.16492658 224.720266,6.64777738 C225.348955,6.02172335 226.101603,5.53254424 226.95273,5.18996017 C227.803856,4.85035165 228.737487,4.67896043 229.731378,4.67896043 C230.725472,4.67896043 231.636859,4.83785437 232.446531,5.15564226 C233.262675,5.47343014 233.97407,5.93126687 234.558272,6.51070408 C235.142676,7.09648911 235.596853,7.80367626 235.904828,8.61361879 C236.063567,9.0371376 236.181054,9.48584933 236.25729,9.95618333 C236.333525,9.56995798 236.428769,9.19920545 236.558996,8.84709965 C236.87971,7.97804302 237.343391,7.22721459 237.930829,6.61365783 C238.521501,5.9999027 239.232897,5.52004697 240.039536,5.18361235 C240.84294,4.84717774 241.728848,4.67896043 242.665714,4.67896043 C243.535849,4.67896043 244.339253,4.85035165 245.053682,5.18678626 C245.218892,5.26474546 245.374598,5.34568021 245.526867,5.43296277 L245.526867,1.4828316 L245.526867,0.732003166 L246.292254,0.732003166 L249.852063,0.732003166 L250.61745,0.732003166 L250.61745,1.4828316 L250.61745,17.6850545 L250.61745,18.4358829 L249.852063,18.4358829 L246.292254,18.4358829 L245.526867,18.4358829 L245.526867,17.9778478 C245.374598,18.0651304 245.215657,18.149239 245.053682,18.2240243 C244.339253,18.5604589 243.535849,18.7318501 242.665714,18.7318501 C241.725612,18.7318501 240.84294,18.5636328 240.039536,18.2271982 C239.229661,17.8905652 238.521501,17.4109079 237.930829,16.7971527 C237.343391,16.183596 236.87971,15.4327676 236.558996,14.5635126 C236.387517,14.0963525 236.263559,13.5948744 236.187525,13.065228 L236.117559,13.438956 L235.47613,13.438956 L234.352012,13.438956 L235.888853,15.3206888 L236.295306,15.8160174 L235.86034,16.2925008 C235.256928,16.9498972 234.469499,17.5293344 233.513625,18.0089918 C232.532271,18.5043204 231.382673,18.7536708 230.103051,18.7536708 C228.985202,18.7536708 227.962596,18.5697823 227.057477,18.2083531 C226.149326,17.8439484 225.36493,17.3329487 224.720266,16.6943974 C224.075602,16.0526721 223.57714,15.2956942 223.237215,14.4421104 C222.903761,13.59785 222.732282,12.6913015 222.732282,11.7506335 C222.732282,10.940691 222.8435,10.1741914 223.056231,9.4672026 L222.684761,9.4672026 C222.303584,9.4672026 221.938382,9.49199878 221.595424,9.53881398 C221.293718,9.58245526 221.011222,9.66339 220.757037,9.78181657 C220.528533,9.89072141 220.331574,10.0371181 220.160095,10.2335038 C220.007625,10.4078706 219.877397,10.6415498 219.775885,10.9343432 L219.775885,17.6850545 L219.775885,18.4358829 L219.010498,18.4358829 L215.450689,18.4358829 L214.685302,18.4358829 L214.685302,17.6850545 Z M227.244932,5.88782396 C226.48278,6.18994065 225.825376,6.61980729 225.266451,7.17742385 C224.707526,7.73186651 224.27256,8.39541238 223.964383,9.17123536 C223.653173,9.94685997 223.497669,10.8065932 223.497669,11.7506335 C223.497669,12.6042173 223.65014,13.407812 223.951846,14.1711377 C224.253552,14.9312895 224.691754,15.5948354 225.266451,16.1647509 C225.841351,16.7380386 226.533536,17.186552 227.346444,17.5136632 C228.162587,17.8407745 229.080445,18.0028424 230.103051,18.0028424 C231.268421,18.0028424 232.287792,17.7816604 233.164195,17.3424704 C234.037566,16.9001065 234.748961,16.3829573 235.291911,15.7910228 L233.408674,13.4857712 C233.097464,13.8658471 232.675237,14.2177546 232.138556,14.5448658 C231.605111,14.8719771 230.988959,15.0372188 230.290303,15.0372188 C229.267697,15.0372188 228.499277,14.8160369 227.988075,14.373673 C227.476671,13.9342846 227.149688,13.3705186 227.009957,12.6851521 L235.47613,12.6851521 C235.507878,12.5201087 235.53639,12.2925789 235.558634,12.0029595 C235.580878,11.7131417 235.593617,11.4608157 235.593617,11.2489571 C235.593617,10.3830744 235.457122,9.59177862 235.187163,8.87526811 C234.91397,8.16193151 234.523491,7.54817639 234.012087,7.04035055 C233.500885,6.52954918 232.884733,6.13380209 232.163833,5.85350604 C231.443136,5.57003607 230.630026,5.42978886 229.731378,5.42978886 C228.832731,5.42978886 228.003848,5.58253335 227.244932,5.88782396 L227.244932,5.88782396 Z M222.684761,8.71637417 L222.684761,5.42978886 L222.265567,5.42978886 C221.538399,5.42978886 220.900003,5.60415562 220.360087,5.95626142 C219.817137,6.30519331 219.366196,6.80052187 219.010498,7.43907318 L219.010498,5.7257561 L215.450689,5.7257561 L215.450689,17.6850545 L219.010498,17.6850545 L219.010498,10.8159166 C219.150229,10.3735527 219.337683,10.0152974 219.578927,9.74432474 C219.820373,9.47017814 220.102868,9.25534401 220.430054,9.10577343 C220.754003,8.95302894 221.106466,8.85027356 221.48744,8.79730891 C221.865382,8.74434427 222.265567,8.71637417 222.684761,8.71637417 L222.684761,8.71637417 Z M231.735136,13.9094884 C231.98285,13.7567439 232.202052,13.6010239 232.389304,13.438956 L228.146815,13.438956 C228.245294,13.5730538 228.362781,13.6976298 228.492806,13.8097086 C228.85821,14.1243226 229.464656,14.2863904 230.290303,14.2863904 C230.845992,14.2863904 231.319178,14.1618144 231.735136,13.9094884 L231.735136,13.9094884 Z M242.665714,5.42978886 C241.827327,5.42978886 241.052436,5.57935944 240.338007,5.87532668 C239.623376,6.17129392 239.007426,6.59183719 238.489753,7.13060866 C237.969047,7.6695785 237.565627,8.32697491 237.279896,9.10577343 C236.993962,9.88139805 236.847963,10.7474791 236.847963,11.7038183 C236.847963,12.6633314 236.993962,13.5294125 237.279896,14.3050371 C237.565627,15.0838357 237.969047,15.7412321 238.489753,16.2800035 C239.007426,16.8189734 239.623376,17.2395166 240.338007,17.5354839 C241.052436,17.8314511 241.827327,17.9810217 242.665714,17.9810217 C243.42463,17.9810217 244.110547,17.834625 244.723463,17.5479812 C245.336379,17.2583617 245.857085,16.8937587 246.292254,16.4513948 L246.292254,17.6850545 L249.852063,17.6850545 L249.852063,1.4828316 L246.292254,1.4828316 L246.292254,6.98123645 C245.857085,6.52637527 245.336379,6.15244882 244.723463,5.8628294 C244.110547,5.57618553 243.42463,5.42978886 242.665714,5.42978886 L242.665714,5.42978886 Z" id="Fill-28" fill="#040602" mask="url(#mask-2)"></path>
                <path d="M213.704049,5.7257561 L213.704049,17.6850545 L213.704049,18.4358829 L212.938662,18.4358829 L209.378853,18.4358829 L208.613466,18.4358829 L208.613466,17.6850545 L208.613466,5.7257561 L208.613466,4.97492767 L209.378853,4.97492767 L212.938662,4.97492767 L213.704049,4.97492767 L213.704049,5.7257561 Z M209.378853,17.6850545 L212.938662,17.6850545 L212.938662,5.7257561 L209.378853,5.7257561 L209.378853,17.6850545 Z" id="Fill-29" fill="#040602" mask="url(#mask-2)"></path>
                <path d="M213.704049,0.753863482 L213.704049,3.16504434 L213.704049,3.91587277 L212.938662,3.91587277 L209.378853,3.91587277 L208.613466,3.91587277 L208.613466,3.16504434 L208.613466,0.753863482 L208.613466,5.95108398e-05 L209.378853,5.95108398e-05 L212.938662,5.95108398e-05 L213.704049,5.95108398e-05 L213.704049,0.753863482 Z M209.378853,3.16504434 L212.938662,3.16504434 L212.938662,0.753863482 L209.378853,0.753863482 L209.378853,3.16504434 Z" id="Fill-30" fill="#040602" mask="url(#mask-2)"></path>
                <path d="M199.191479,14.5231245 C198.680277,14.2583013 198.2991,13.8813993 198.051386,13.3922202 L198.051386,10.0403713 C198.2991,9.53869496 198.680277,9.15246961 199.191479,8.88764637 C199.702681,8.62282313 200.239362,8.48892374 200.798287,8.48892374 C201.681161,8.48892374 202.417834,8.76307034 203.008507,9.30818964 C203.596146,9.85648284 203.891381,10.657102 203.891381,11.7038977 C203.891381,12.7536689 203.596146,13.5542881 203.008507,14.1025813 C202.417834,14.6477006 201.681161,14.9218472 200.798287,14.9218472 C200.239362,14.9218472 199.702681,14.7911217 199.191479,14.5231245 M203.125994,11.7038977 C203.125994,10.8628111 202.913263,10.2583794 202.48133,9.85648284 C202.033624,9.4422874 201.484203,9.23975217 200.798287,9.23975217 C200.36332,9.23975217 199.953631,9.34250755 199.550412,9.55119223 C199.232731,9.716434 198.991488,9.93761595 198.820009,10.2272354 L198.820009,13.2021823 C198.991488,13.4763289 199.232731,13.6945353 199.550412,13.8595787 C199.953631,14.0682633 200.36332,14.1710187 200.798287,14.1710187 C201.484203,14.1710187 202.033624,13.9686819 202.48133,13.5542881 C202.913263,13.1523915 203.125994,12.5481581 203.125994,11.7038977" id="Fill-31" fill="#040602" mask="url(#mask-2)"></path>
                <path d="M198.051426,21.4700431 L198.051426,16.4514939 C198.47062,16.8938579 198.991326,17.2582626 199.610713,17.5480804 C200.229898,17.8345259 200.922286,17.9809225 201.681202,17.9809225 C202.519589,17.9809225 203.294278,17.8315503 204.008909,17.5355831 C204.720305,17.2396158 205.336254,16.8190726 205.857162,16.2801027 C206.374633,15.7411329 206.778054,15.0839348 207.06702,14.3051363 C207.352751,13.5293133 207.495718,12.6634306 207.495718,11.7039175 C207.495718,10.7473799 207.352751,9.88149723 207.06702,9.10567425 C206.778054,8.32687572 206.374633,7.66967768 205.857162,7.13070785 C205.336254,6.59173801 204.720305,6.17119474 204.008909,5.8752275 C203.294278,5.57926025 202.519589,5.42988804 201.681202,5.42988804 C200.922286,5.42988804 200.229898,5.57628471 199.610713,5.86273022 C198.991326,6.15254801 198.47062,6.52627608 198.051426,6.98113727 L198.051426,5.72565692 L194.494651,5.72565692 L194.494651,21.4700431 L198.051426,21.4700431 Z M198.051426,4.97502686 L198.819847,4.97502686 L198.819847,5.42354022 C198.969284,5.33943157 199.121553,5.25849683 199.283528,5.18371154 C200.004428,4.85045083 200.811067,4.67905962 201.681202,4.67905962 C202.618068,4.67905962 203.50074,4.84727692 204.30738,5.18371154 C205.114019,5.52014615 205.822179,5.99980352 206.412852,6.61355865 C207.003524,7.22731378 207.46397,7.9781422 207.78792,8.84719883 C208.102163,9.70395656 208.261105,10.6632713 208.261105,11.7039175 C208.261105,12.7475393 208.102163,13.706854 207.78792,14.5636117 C207.46397,15.4326684 207.003524,16.1834968 206.412852,16.7972519 C205.822179,17.411007 205.114019,17.8906644 204.30738,18.227099 C203.50074,18.5635336 202.618068,18.731751 201.681202,18.731751 C200.811067,18.731751 200.004428,18.5603597 199.283528,18.227099 C199.121553,18.1523137 198.969284,18.071379 198.819847,17.9872703 L198.819847,21.4700431 L198.819847,22.223847 L198.051426,22.223847 L194.494651,22.223847 L193.72623,22.223847 L193.72623,21.4700431 L193.72623,13.9873484 L193.72623,7.13070785 L193.72623,5.72565692 L193.72623,4.97502686 L194.494651,4.97502686 L198.051426,4.97502686 Z" id="Fill-32" fill="#040602" mask="url(#mask-2)"></path>
                <path d="M185.377525,14.7629929 C184.755104,14.4420311 184.243902,14.0558057 183.840482,13.597969 L182.004968,15.8127641 C182.592405,16.4515138 183.31654,16.9809619 184.177171,17.3985296 C185.037802,17.815899 186.034928,18.0245836 187.168551,18.0245836 C188.067198,18.0245836 188.858065,17.9186543 189.540746,17.7067958 C190.220393,17.4949372 190.795091,17.2021438 191.262007,16.8284158 C191.725688,16.4544893 192.074915,16.0246227 192.306655,15.5386175 C192.54163,15.0526123 192.656084,14.5356615 192.656084,13.9873683 C192.656084,12.9219259 192.319394,12.0621926 191.646218,11.4079701 C190.969805,10.7537476 189.912216,10.3207071 188.470619,10.1088485 L187.352769,9.92515835 C186.685861,9.81922905 186.352407,9.54508245 186.352407,9.10569409 C186.352407,8.84721867 186.466659,8.63218617 186.689097,8.46396886 C186.914568,8.29892547 187.251055,8.21481681 187.701996,8.21481681 C188.229173,8.21481681 188.715098,8.3175722 189.156535,8.52328133 C189.597973,8.7287921 190.013931,9.01226207 190.401376,9.37686515 L192.166923,7.1650456 C191.719217,6.67904041 191.13178,6.26782051 190.410881,5.93138589 C189.689981,5.59812519 188.84209,5.42990788 187.863971,5.42990788 C187.073307,5.42990788 186.368382,5.52948935 185.748995,5.72567675 C185.126575,5.92503807 184.599398,6.19918467 184.167667,6.54811656 C183.732498,6.90022236 183.399044,7.30826835 183.167305,7.78177627 C182.93233,8.25211027 182.817876,8.76311002 182.817876,9.30822931 C182.817876,10.3145576 183.135557,11.1306496 183.770717,11.7630515 C184.405877,12.3922794 185.307558,12.8098471 186.469895,13.0060345 L187.584509,13.1897247 C188.067198,13.2645099 188.441904,13.3704392 188.715098,13.5075125 C188.985056,13.6445858 189.121552,13.881439 189.121552,14.2146997 C189.121552,14.5199903 188.959577,14.7661668 188.632594,14.9562047 C188.305409,15.1462427 187.863971,15.2426503 187.308282,15.2426503 C186.641374,15.2426503 185.99671,15.0839547 185.377525,14.7629929 L185.377525,14.7629929 Z M183.246776,13.1244611 L183.64049,12.6509532 C183.491255,12.5386761 183.354557,12.4204479 183.227565,12.289524 C182.446405,11.5168749 182.052691,10.5139189 182.052691,9.30822931 C182.052691,8.65103127 182.195455,8.02477887 182.478153,7.45466502 C182.757615,6.88455117 183.161036,6.38624708 183.681742,5.96867935 C184.186675,5.56063336 184.802827,5.23986993 185.510987,5.01234016 C186.206408,4.7911582 186.997072,4.67907945 187.863971,4.67907945 C188.950073,4.67907945 189.918687,4.87209294 190.741099,5.25216884 C191.547738,5.62926919 192.220915,6.10277711 192.735352,6.66039368 L193.170521,7.13072768 L192.770336,7.62923015 L191.004789,9.8410497 L190.874562,10.0029192 C191.392234,10.2397723 191.830436,10.5325657 192.182899,10.8751497 C193.005311,11.6727933 193.421471,12.7193906 193.421471,13.9873683 C193.421471,14.6445663 193.28174,15.2737943 193.002277,15.8564054 C192.71958,16.445166 192.29715,16.9684646 191.744697,17.4108285 C191.208016,17.8408935 190.544343,18.1834776 189.772485,18.4233063 C189.016804,18.6569855 188.1404,18.778586 187.168551,18.778586 C185.920474,18.778586 184.802827,18.5385589 183.837246,18.0713988 C182.894111,17.6133637 182.087674,17.0214293 181.436539,16.317416 L180.995102,15.8377587 L181.408026,15.3392562 L183.246776,13.1244611 Z M188.584871,9.36436787 C188.854829,9.40483524 189.112048,9.45165043 189.359762,9.50759062 C189.188283,9.38916405 189.010333,9.28640867 188.826317,9.20230002 C188.486392,9.04340607 188.118157,8.96564524 187.701996,8.96564524 C187.305047,8.96564524 187.174819,9.04657998 187.152778,9.06522671 C187.143072,9.07157454 187.133567,9.0808979 187.127299,9.08387344 C187.174819,9.108868 187.27977,9.15250928 187.479761,9.18365329 L188.584871,9.36436787 Z M188.356165,14.2146997 C188.356165,14.196053 188.353132,14.1803818 188.353132,14.1710584 C188.2134,14.1026209 187.946678,14.006015 187.460753,13.9312297 L186.339668,13.7473412 C185.641012,13.629113 185.018591,13.4359012 184.475642,13.1681024 C184.80586,13.5261593 185.228289,13.8377977 185.733222,14.0962731 C186.244424,14.3610963 186.762097,14.4888463 187.308282,14.4888463 C187.717971,14.4888463 188.038686,14.4297322 188.241913,14.3113056 C188.333921,14.2551671 188.356165,14.2208491 188.356165,14.2146997 L188.356165,14.2146997 Z" id="Fill-33" fill="#040602" mask="url(#mask-2)"></path>
                <polygon id="Fill-34" fill="#003468" mask="url(#mask-2)" points="47.2866314 5.92464133 47.2866314 10.4665086 42.0362978 10.4665086 42.0362978 5.92464133 39.1427904 5.92464133 39.1427904 17.8466462 42.0362978 17.8466462 42.0362978 13.0526513 47.2866314 13.0526513 47.2866314 17.8466462 50.1793299 17.8466462 50.1793299 5.92464133 50.0327233 5.92464133"></polygon>
                <polygon id="Fill-35" fill="#003468" mask="url(#mask-2)" points="60.7837744 5.92464133 57.7568046 10.6452395 54.7326658 5.92464133 51.3186547 5.92464133 56.3139941 13.7175858 56.3139941 17.8466462 59.2038616 17.8466462 59.2038616 13.7175858 64.2000098 5.92464133 63.9336915 5.92464133"></polygon>
                <path d="M73.5056418,5.92464133 L73.5056418,14.6640065 C73.5056418,14.9958786 73.2498387,15.2638758 72.8900966,15.2638758 L68.2524771,15.2638758 L68.2524771,5.92464133 L65.3603853,5.92464133 L65.3603853,17.8466462 L73.9080515,17.8466462 C74.6704054,17.8466462 75.2819063,17.6252659 75.7269835,17.1900433 C76.1700385,16.7534321 76.3934871,16.1535628 76.3934871,15.4112643 L76.3934871,5.92464133 L76.2495094,5.92464133 L73.5056418,5.92464133 Z" id="Fill-36" fill="#003468" mask="url(#mask-2)"></path>
                <path d="M87.6264793,5.92464133 L79.0759821,5.92464133 L79.0759821,17.8466462 L81.968074,17.8466462 L81.968074,8.50602319 L86.6085245,8.50602319 C86.9808039,8.50602319 87.2212386,8.79187359 87.2212386,9.10311528 L87.2212386,17.8466462 L90.1104994,17.8466462 L90.1104994,8.36220533 C90.1104994,7.61574103 89.8848265,7.01785546 89.4439958,6.58263285 C88.9946721,6.14463307 88.3868111,5.92464133 87.6264793,5.92464133" id="Fill-37" fill="#003468" mask="url(#mask-2)"></path>
                <path d="M100.934631,9.12287288 L100.934631,14.6476609 C100.934631,14.9690194 100.69359,15.2645899 100.316255,15.2645899 L95.6800511,15.2645899 L95.6800511,8.50594384 L100.298056,8.50594384 C100.678222,8.50594384 100.934631,8.76640295 100.934631,9.12287288 M101.341287,5.92456198 L92.7922058,5.92456198 L92.7922058,17.8465669 L101.341287,17.8465669 C102.10081,17.8465669 102.70948,17.6251866 103.154557,17.189964 C103.600241,16.7525593 103.823892,16.154277 103.823892,15.4103915 L103.823892,8.36212598 C103.823892,7.61566168 103.600241,7.01777611 103.154557,6.58056981 C102.708671,6.14455372 102.097979,5.92456198 101.341287,5.92456198" id="Fill-38" fill="#003468" mask="url(#mask-2)"></path>
                <path d="M114.521073,8.50602319 L114.521073,11.5767825 L109.266493,11.5767825 L109.266493,9.11204191 C109.266493,8.81726488 109.499243,8.50602319 109.883453,8.50602319 L114.521073,8.50602319 Z M108.864083,5.92464133 C108.10456,5.92464133 107.491644,6.14463307 107.049397,6.58263285 C106.602905,7.01924404 106.38067,7.61772472 106.38067,8.36280044 L106.38067,17.8466462 L109.266493,17.8466462 L109.266493,14.1581644 L114.521073,14.1581644 L114.521073,17.8466462 L117.409525,17.8466462 L117.409525,5.92464133 L108.864083,5.92464133 Z" id="Fill-39" fill="#003468" mask="url(#mask-2)"></path>
                <polygon id="Fill-40" fill="#003468" mask="url(#mask-2)" points="120.225442 17.8465074 123.117534 17.8465074 123.117534 5.92450247 120.225442 5.92450247"></polygon>
                <path d="M10.4720133,5.48138476 C10.8171959,5.41631957 11.044891,5.41691468 11.1267884,5.50261029 C11.1749158,5.55676515 11.1888687,5.64662652 11.1259795,5.75751505 C11.0883674,5.81801774 11.0499464,5.87137913 10.9813952,5.95231387 C8.05795989,9.33292631 5.83176504,14.3195379 5.19862705,15.7597003 C5.15110631,15.8582899 5.10277671,15.9570779 5.06435569,16.021548 C5.00712859,16.1229148 4.92826439,16.2080153 4.78772434,16.2155533 C4.70946679,16.2203142 4.60391009,16.2024609 4.4425418,16.105855 C2.50228023,14.9323012 1.34863851,13.4697232 1.34863851,11.8827674 C1.34863851,9.01831234 5.10277671,6.55615052 10.4720133,5.48138476 M13.4702685,7.63706574 C13.7462932,7.01140845 14.2215006,5.67122434 15.3114443,5.13860232 C15.6420673,4.97752631 16.0487234,4.90075733 16.4147342,4.89044212 C16.4958228,4.88706984 16.5544654,4.89044212 16.5783269,4.89044212 C19.6311803,4.89044212 22.470696,5.30463756 24.8513838,6.01678395 C24.8681678,6.02213992 24.9239793,6.04336545 24.9407633,6.04971328 C25.1601675,6.12152302 25.2734084,6.22031102 25.2734084,6.34290335 C25.2734084,6.44982449 25.2147658,6.53016412 25.1365083,6.60693311 C25.1035471,6.63906896 25.0525887,6.6817184 24.9862618,6.73646837 C24.4376501,7.18756053 22.7837262,8.36032082 19.6696014,9.52970882 C18.5760178,9.94013524 17.210656,10.449548 15.7803829,10.7463088 C14.9383559,10.9204771 11.8268599,11.3852568 13.4702685,7.63706574 M27.9992788,7.74339178 C28.0579214,7.64262009 28.1361789,7.55831307 28.2779323,7.54938644 C28.3555832,7.5438321 28.4617465,7.56247882 28.6216993,7.65967986 C30.5635786,8.83263852 31.7143893,10.2952166 31.7143893,11.8813788 C31.7143893,14.7466274 27.9600489,17.2074006 22.5930366,18.2841501 C22.248663,18.3508022 22.0193501,18.3486202 21.9410926,18.263718 C21.8873032,18.2101583 21.8733503,18.1183132 21.9410926,18.0058377 C21.9746604,17.9483106 22.0136881,17.8947508 22.0844637,17.8112373 C25.0078989,14.4300297 27.2332849,9.4454018 27.8664229,8.00583458 C27.9145503,7.90585637 27.962071,7.80845696 27.9992788,7.74339178 M19.6457399,16.1147816 C19.370524,16.742621 18.8953167,18.0826067 17.8045641,18.6152287 C17.4761655,18.7749161 17.0674871,18.8530737 16.7012742,18.863984 C16.6195789,18.8661661 16.561543,18.863984 16.536266,18.863984 C13.4842214,18.863984 10.6445035,18.4485984 8.26745557,17.7378406 C8.24723398,17.7324846 8.19202903,17.7112591 8.17524511,17.7043161 C7.95664973,17.6331015 7.84401547,17.5329249 7.84401547,17.4115228 C7.84401547,17.3020229 7.90063592,17.2224767 7.97950012,17.1470963 C8.01246131,17.114167 8.06341972,17.072311 8.12913989,17.0161725 C8.67977379,16.567064 10.3322821,15.3915265 13.4472159,14.222932 C14.5399906,13.8136958 15.9053524,13.3030928 17.3378498,13.0069272 C18.1762369,12.8335523 21.2891485,12.3667889 19.6457399,16.1147816 M16.5336372,20.1904807 C25.6653028,20.1904807 33.0672137,16.4726401 33.0672137,11.884156 C33.0672137,7.29785396 25.6653028,3.58001343 16.5336372,3.58001343 C7.40237594,3.58001343 6.06647703e-05,7.29785396 6.06647703e-05,11.884156 C6.06647703e-05,16.4726401 7.40237594,20.1904807 16.5336372,20.1904807" id="Fill-41" fill="#003468" mask="url(#mask-2)"></path>
                <path d="M166.633748,4.66223788 L163.986136,4.6608493 L160.551903,11.8285332 C162.689325,13.0735 163.598488,11.091789 163.821936,10.6303816 C164.150335,9.95116459 166.624042,4.66561017 166.633748,4.66223788" id="Fill-42" fill="#E04022" mask="url(#mask-2)"></path>
                <path d="M166.182362,18.9681478 C163.780846,18.8907838 161.013724,18.5610937 158.702396,16.6986028 C157.775034,15.9521385 156.98983,15.2229323 156.296633,14.5792234 C154.599435,13.004765 153.364705,11.8579911 151.489961,11.6907656 L148.140255,18.7844577 L140.48335,18.7844577 L147.236754,4.73077454 C147.236754,4.73077454 148.263809,4.68276912 148.729917,4.68276912 C154.212192,4.68276912 156.701874,7.70889533 158.349529,9.71183183 C158.633238,10.056598 158.901579,10.3823206 159.15172,10.6523015 C160.100517,11.674301 161.034754,12.2337028 161.853729,12.2337028 C162.622351,12.2337028 163.279755,11.7223064 163.733325,10.8016737 C164.275466,9.70012803 166.158703,5.67382298 166.633708,4.6621387 L165.735263,4.66075011 L166.636539,2.77921573 L175.425247,2.77921573 L167.630228,19.0010772 L166.182362,18.9681478 Z" id="Fill-43" fill="#FFFFFF" mask="url(#mask-2)"></path>
                <path d="M167.524651,18.8383745 C167.108086,18.8411517 166.541477,18.8165539 166.188004,18.8054452 C164.049773,18.7362143 161.180734,18.4840867 158.807932,16.5729952 C155.599979,13.9888362 154.192759,11.7075873 151.387822,11.5191364 L148.034071,18.6217551 L140.745402,18.6217551 L147.345122,4.88744674 C147.830642,4.85808806 148.291897,4.84559078 148.729896,4.84559078 C155.075836,4.84559078 157.322252,8.92267842 159.028752,10.7617617 C160.041854,11.8537856 161.012288,12.3780761 161.852293,12.3780761 C162.682996,12.3780761 163.384685,11.864696 163.870205,10.8782046 C164.497075,9.60606123 166.892929,4.49963443 166.892929,4.49963443 L165.996506,4.49804748 L166.742076,2.94223576 L175.163357,2.94223576 L167.524651,18.8383745 Z M164.084756,4.80175113 L166.406599,4.80512341 C165.8135,6.06635648 164.100731,9.7082215 163.589934,10.7452971 C163.291666,11.3505223 162.748109,12.0723888 161.852293,12.0723888 C161.50711,12.0723888 161.138066,11.9682448 160.753856,11.7653129 L164.084756,4.80175113 Z M175.202991,4.53315887 L176.11276,2.6028256 L166.5435,2.63654841 L165.652738,4.49804748 L163.877283,4.49804748 L160.4841,11.6082042 C160.086544,11.3566718 159.675034,11.0043676 159.259278,10.556251 C159.011159,10.2888489 158.743628,9.96312626 158.460526,9.61915361 C156.791233,7.58884213 154.280116,4.53990344 148.729896,4.53990344 C148.277135,4.53990344 147.138862,4.59822406 147.138862,4.59822406 L140.105995,19.2353118 L148.455287,19.2353118 L151.49621,12.7036004 C152.520636,12.7750134 153.410183,12.8914563 156.084893,15.211784 C158.652833,17.4386796 160.011724,19.2668526 167.49169,19.2668526 C172.61847,19.2668526 173.257067,19.2847058 173.257067,19.2847058 L180.315009,4.54069691 L175.202991,4.53315887 Z" id="Fill-44" fill="#040602" mask="url(#mask-2)"></path>
            </g>
        </g>
    </g>
</svg>