<?xml version="1.0" encoding="UTF-8"?>
<svg width="242px" height="40px" viewBox="0 0 242 40" version="1.1" xmlns="http://www.w3.org/2000/svg" xmlns:xlink="http://www.w3.org/1999/xlink">
    <title>logo/new/sbk copy</title>
    <defs>
        <polygon id="path-1" points="0 39.9999955 242 39.9999955 242 0 0 0"></polygon>
    </defs>
    <g id="Page-1" stroke="none" stroke-width="1" fill="none" fill-rule="evenodd">
        <g id="SBK/home" transform="translate(-144.000000, -52.000000)">
            <g id="logo/new/sbk-copy" transform="translate(144.000000, 52.000000)">
                <polygon id="Fill-1" fill="#E62329" points="137.983847 0 120.053713 14.1343159 137.983847 28.2921394 241.999989 28.2921394 241.999989 0"></polygon>
                <polygon id="Fill-2" fill="#FFFFFF" points="0.679996394 32.1591647 0.679996394 39.8932334 1.74671116 39.8932334 1.74671116 36.7970005 4.75178686 36.7970005 4.75178686 35.8426127 1.74671116 35.8426127 1.74671116 33.1135525 5.53369243 33.1135525 5.82500391 32.823754 5.82500391 32.1591647"></polygon>
                <polygon id="Fill-3" fill="#FFFFFF" points="8.3694844 39.8932357 9.43619916 39.8932357 9.43619916 32.159167 8.3694844 32.159167"></polygon>
                <polygon id="Fill-4" fill="#FFFFFF" points="19.9148439 32.1591647 18.7471285 32.1591647 16.553819 37.4061905 14.3604869 32.1591647 13.1928168 32.1591647 12.2116513 39.4254042 12.2104732 39.8932334 13.2624162 39.8932334 13.9804317 33.9239877 16.0642445 38.8789611 17.0433936 38.8789611 19.127229 33.9239426 19.8452445 39.8932334 20.8971649 39.8932334 20.8971649 39.4427588"></polygon>
                <g id="Group-49" transform="translate(0.000000, 0.000005)">
                    <path d="M32.4975968,36.276037 C32.2221672,35.967712 31.8767984,35.768946 31.4722746,35.6854187 L29.4860867,35.2582037 C29.242353,35.2071542 29.0524046,35.1105773 28.9215886,34.9711323 C28.7954171,34.8366232 28.7314137,34.6348145 28.7314137,34.3713183 L28.7314137,34.0510253 C28.7314137,33.9205732 28.756494,33.7982574 28.8059521,33.6875263 C28.8564525,33.574609 28.924987,33.4746287 29.0096753,33.3903802 C29.0944316,33.3060641 29.1949338,33.2378855 29.30835,33.1877376 C29.4197272,33.1384913 29.5426589,33.1135413 29.6737694,33.1135413 L32.4647455,33.1135413 L32.756057,32.8237427 L32.756057,32.1591534 L29.6737694,32.1591534 C29.3799431,32.1591534 29.1059635,32.2070024 28.8594204,32.301303 C28.6117218,32.3960995 28.3966706,32.5292788 28.2202933,32.697077 C28.0433722,32.8654613 27.9049664,33.0670446 27.8089274,33.2962825 C27.7132509,33.5248217 27.664699,33.7787617 27.664699,34.0510253 L27.664699,34.3713183 C27.664699,34.8858921 27.8058462,35.3047454 28.0841757,35.6162259 C28.3596053,35.924551 28.7049741,36.1233395 29.1094979,36.2068442 L31.0956857,36.6340593 C31.3394422,36.6851087 31.5293905,36.7816857 31.6601839,36.9211306 C31.7863781,37.0556172 31.8503361,37.2574259 31.8503361,37.5209446 L31.8503361,38.0013954 C31.8503361,38.1318475 31.8252785,38.2541633 31.7757977,38.3649169 C31.725388,38.4777441 31.6568308,38.5777243 31.5720971,38.6620179 C31.4873182,38.746334 31.3868386,38.8145126 31.2733998,38.8646605 C31.1620906,38.9139069 31.0391589,38.9388569 30.908003,38.9388569 L27.5573999,38.9388569 L27.5573999,39.8932447 L30.908003,39.8932447 C31.2018746,39.8932447 31.4758769,39.8453957 31.7223521,39.7510951 C31.9700733,39.6562987 32.1851245,39.5231194 32.3614566,39.3553211 C32.5383776,39.1870045 32.6767834,38.9853761 32.7728224,38.7561156 C32.8685216,38.527599 32.9170508,38.2736816 32.9170508,38.0013954 L32.9170508,37.5209446 C32.9170508,37.0063483 32.7759263,36.587495 32.4975968,36.276037" id="Fill-5" fill="#FFFFFF"></path>
                    <path d="M40.1923749,32.1591602 L40.1923749,38.1081439 C40.1923749,38.2385735 40.1672947,38.3608668 40.1178139,38.4716655 C40.0673815,38.5845377 39.998847,38.684518 39.9141134,38.768789 C39.8293571,38.8531051 39.7288775,38.9213062 39.6154387,38.9714316 C39.5040615,39.020678 39.3811071,39.0456279 39.2500192,39.0456279 L37.6401484,39.0456279 C37.5090378,39.0456279 37.3861061,39.020678 37.2747289,38.9714541 C37.1613128,38.9213062 37.0608332,38.8531051 36.9760542,38.7687664 C36.8913659,38.6845405 36.8228314,38.5845828 36.7723537,38.4716655 C36.7228729,38.3609344 36.6977926,38.2385961 36.6977926,38.1081439 L36.6977926,32.1591602 L35.6311005,32.1591602 L35.6311005,38.1081439 C35.6311005,38.3804301 35.6796298,38.6343475 35.7753063,38.8628867 C35.8713453,39.0921246 36.0097511,39.2937305 36.1866722,39.4620696 C36.3630269,39.629913 36.5780781,39.7630698 36.8257993,39.8578437 C37.0722745,39.9521668 37.3462767,39.9999932 37.6401484,39.9999932 L39.2500192,39.9999932 C39.5439135,39.9999932 39.8178931,39.9521668 40.064323,39.8578437 C40.3120669,39.7630923 40.5270954,39.6299355 40.7034954,39.4620696 C40.8804845,39.2936628 41.0188676,39.092057 41.1148386,38.8628867 C41.2105151,38.6344151 41.2590671,38.3804977 41.2590671,38.1081439 L41.2590671,32.1591602 L40.1923749,32.1591602 Z" id="Fill-7" fill="#FFFFFF"></path>
                    <path d="M47.734875,36.429839 L45.3436423,36.429839 L45.3436423,33.1135413 L47.734875,33.1135413 C47.8659856,33.1135413 47.9889173,33.1384913 48.1002945,33.1877376 C48.2137106,33.2378855 48.3142129,33.3060641 48.3989691,33.3904028 C48.4836575,33.4746287 48.552192,33.574609 48.6026923,33.6875037 C48.6521505,33.7982574 48.6772307,33.9205732 48.6772307,34.0510253 L48.6772307,35.4923549 C48.6772307,35.6228071 48.6521505,35.7451229 48.6026923,35.855854 C48.5522147,35.9687938 48.4836801,36.0687515 48.3989691,36.153 C48.3142129,36.2373161 48.2137106,36.3055172 48.1002945,36.3556652 C47.9889173,36.404889 47.8659856,36.429839 47.734875,36.429839 M49.5997171,33.2962825 C49.5036781,33.0670446 49.3652723,32.8654613 49.1883512,32.6970996 C49.0120192,32.5292788 48.7969906,32.396122 48.5492014,32.3013256 C48.3026809,32.2070024 48.0287013,32.1591534 47.734875,32.1591534 L44.2769276,32.1591534 L44.2769276,39.8932447 L45.3436423,39.8932447 L45.3436423,37.3842268 L47.734875,37.3842268 C48.0287013,37.3842268 48.3026809,37.3364004 48.5492241,37.2420772 C48.7969906,37.1472808 49.0120192,37.014124 49.1883512,36.8463032 C49.3652723,36.6779415 49.5036781,36.4763357 49.5997171,36.2470978 C49.6953936,36.0185586 49.7439455,35.7646411 49.7439455,35.4923549 L49.7439455,34.0510253 C49.7439455,33.7787617 49.6953936,33.5248217 49.5997171,33.2962825" id="Fill-9" fill="#FFFFFF"></path>
                    <polygon id="Fill-11" fill="#FFFFFF" points="57.3417807 33.1135525 57.6330922 32.823754 57.6330922 32.1591647 52.4880847 32.1591647 52.4880847 39.8932334 57.6330922 39.8932334 57.6330922 38.9388456 53.5547995 38.9388456 53.5547995 36.4233366 56.6135247 36.4233366 56.6135247 35.4689488 53.5547995 35.4689488 53.5547995 33.1135525"></polygon>
                    <path d="M61.340911,33.1135525 L63.7321437,33.1135525 C63.8632542,33.1135525 63.986186,33.1385025 64.0975631,33.1877264 C64.2109793,33.2378743 64.3114589,33.3060529 64.3962378,33.390414 C64.4809261,33.47464 64.5494607,33.5745977 64.5999383,33.687515 C64.6493965,33.7982686 64.6744767,33.9205844 64.6744767,34.0510366 L64.6744767,35.0653089 C64.6744767,35.1957611 64.6493965,35.3180769 64.5999383,35.428808 C64.5494833,35.5417253 64.4809488,35.641683 64.3962378,35.7259315 C64.3114589,35.8102701 64.2109793,35.8784487 64.0975405,35.9285966 C63.9862313,35.9778204 63.8632996,36.0027704 63.7321437,36.0027704 L61.340911,36.0027704 L61.340911,33.1135525 Z M64.3671248,36.8565244 C64.5842604,36.7936423 64.7839961,36.7022041 64.9617781,36.5842832 C65.1551475,36.4611786 65.3341303,36.2779415 65.4938328,36.0397108 C65.6579758,35.7947637 65.7411915,35.4669654 65.7411915,35.0653089 L65.7411915,34.0510366 C65.7411915,33.7787504 65.6926622,33.524833 65.5969631,33.2962938 C65.5009241,33.0670333 65.362541,32.86545 65.1856199,32.6970883 C65.0092425,32.5292675 64.7941913,32.3960882 64.5464701,32.3013143 C64.2999269,32.2069912 64.0259473,32.1591647 63.7321437,32.1591647 L60.2741962,32.1591647 L60.2741962,39.8932334 L61.340911,39.8932334 L61.340911,36.9571583 L63.2800422,36.9571583 L64.9435626,39.8932334 L65.9558349,39.8932334 L65.9558349,39.4056606 L64.3671248,36.8565244 Z" id="Fill-13" fill="#FFFFFF"></path>
                    <path d="M72.8856837,34.4780804 C72.8856837,34.6085325 72.8606035,34.7308483 72.8111453,34.8416019 C72.760713,34.9544967 72.6921784,35.0544544 72.6074448,35.1387254 C72.5226658,35.223019 72.4221863,35.2912427 72.3087474,35.3413906 C72.1973703,35.3906144 72.0744386,35.4155644 71.943328,35.4155644 L69.7667614,35.4155644 L69.7667614,33.1135616 L71.943328,33.1135616 C72.0744386,33.1135616 72.1973703,33.138489 72.3087474,33.1877354 C72.4221863,33.2378833 72.5226658,33.3060619 72.6074448,33.3904005 C72.6921784,33.474649 72.760713,33.5746293 72.8111453,33.6875015 C72.8606035,33.7982551 72.8856837,33.9205709 72.8856837,34.0510231 L72.8856837,34.4780804 Z M72.318988,38.9388546 L69.7667614,38.9388546 L69.7667614,36.3699522 L72.318988,36.3699522 C72.4501212,36.3699522 72.5730529,36.3949022 72.6843847,36.4441035 C72.7978236,36.4942514 72.8983031,36.56243 72.9830594,36.6467687 C73.0678157,36.7310847 73.1363502,36.8310425 73.18676,36.9438922 C73.2362634,37.0546909 73.261321,37.1769841 73.261321,37.3074137 L73.261321,38.0013931 C73.261321,38.1318227 73.2362634,38.254116 73.18676,38.3649147 C73.1363502,38.4777418 73.0678157,38.5777221 72.9830821,38.6620156 C72.8983031,38.7463543 72.7978236,38.8145103 72.6843621,38.8646808 C72.5730529,38.9139046 72.4501212,38.9388546 72.318988,38.9388546 L72.318988,38.9388546 Z M74.1128486,36.4664616 C73.9750319,36.2607988 73.8111607,36.0941951 73.627692,35.9725555 C73.5064595,35.8890733 73.373038,35.8206468 73.2289002,35.7678393 C73.3085362,35.7243628 73.3835504,35.6732007 73.4532631,35.6147812 C73.5799104,35.5124344 73.695207,35.3706679 73.7959358,35.1934261 C73.8997458,35.0106623 73.9523985,34.7699975 73.9523985,34.4780804 L73.9523985,34.0510231 C73.9523985,33.7787594 73.9038466,33.524842 73.8081701,33.2963028 C73.7121311,33.0670423 73.5737253,32.865459 73.3968042,32.6971199 C73.2204495,32.5292765 73.0054209,32.3960972 72.7576544,32.3013233 C72.5111339,32.2070002 72.2371543,32.1591512 71.943328,32.1591512 L68.7000466,32.1591512 L68.7000466,39.8932424 L72.318988,39.8932424 C72.6128822,39.8932424 72.8868618,39.845416 73.1333143,39.7510929 C73.3810129,39.656319 73.5960641,39.5231622 73.7724641,39.3553188 C73.9493626,39.1869797 74.0877457,38.9853964 74.1837847,38.7561134 C74.2794839,38.5276643 74.3280131,38.2737469 74.3280131,38.0013931 L74.3280131,37.3074137 C74.3280131,36.9624412 74.255627,36.6795169 74.1128486,36.4664616 L74.1128486,36.4664616 Z" id="Fill-15" fill="#FFFFFF"></path>
                    <mask id="mask-2" fill="white">
                        <use xlink:href="#path-1"></use>
                    </mask>
                    <g id="Clip-18"></g>
                    <polygon id="Fill-17" fill="#FFFFFF" mask="url(#mask-2)" points="77.0711215 39.8932312 78.1378362 39.8932312 78.1378362 32.1591625 77.0711215 32.1591625"></polygon>
                    <polygon id="Fill-19" fill="#FFFFFF" mask="url(#mask-2)" points="84.6456708 35.9197616 86.609837 32.6455656 86.609837 32.1591647 85.5965225 32.1591647 83.7720309 35.4689263 82.2095565 35.4689263 82.2095565 32.1591647 81.1428417 32.1591647 81.1428417 39.8932334 82.2095565 39.8932334 82.2095565 36.4233366 83.7723934 36.4233366 85.7042294 39.8932334 86.7171587 39.8932334 86.7171587 39.4071481"></polygon>
                    <polygon id="Fill-20" fill="#FFFFFF" mask="url(#mask-2)" points="94.2173713 33.1135525 94.5086827 32.823754 94.5086827 32.1591647 89.3636752 32.1591647 89.3636752 39.8932334 94.5086827 39.8932334 94.5086827 38.9388456 90.43039 38.9388456 90.43039 36.4233366 93.4891152 36.4233366 93.4891152 35.4689488 90.43039 35.4689488 90.43039 33.1135525"></polygon>
                    <polygon id="Fill-21" fill="#FFFFFF" mask="url(#mask-2)" points="109.087162 32.1591602 107.489163 38.2103104 105.957274 33.3335903 104.745243 33.3335903 103.213354 38.2102428 101.615355 32.1591602 100.578614 32.1591602 100.578614 32.6268767 102.540968 39.8932289 103.75676 39.8932289 105.351247 34.8787767 106.945757 39.8932289 108.161549 39.8932289 110.119417 32.6434424 110.123902 32.6268767 110.123902 32.1591602"></polygon>
                    <path d="M116.395763,39.0456302 L114.517576,39.0456302 C114.386466,39.0456302 114.263534,39.0206802 114.152157,38.9714564 C114.038741,38.9213085 113.938239,38.8531299 113.853482,38.7687912 C113.768771,38.6845202 113.700237,38.58454 113.649804,38.4716452 C113.600301,38.3609141 113.575221,38.2386208 113.575221,38.1081461 L113.575221,33.9442475 C113.575221,33.8137728 113.600301,33.6914795 113.649804,33.5807259 C113.700192,33.4678987 113.768749,33.3679185 113.853482,33.2836249 C113.938239,33.1993088 114.038741,33.1311302 114.15218,33.0809823 C114.263489,33.031736 114.386421,33.006786 114.517576,33.006786 L116.395763,33.006786 C116.526919,33.006786 116.649851,33.031736 116.761182,33.0809823 C116.874599,33.1311302 116.975078,33.1993088 117.059834,33.2836024 C117.144591,33.3679185 117.213125,33.4678987 117.263535,33.5807484 C117.313038,33.6914795 117.338119,33.8137728 117.338119,33.9442475 L117.338119,38.1081461 C117.338119,38.2386208 117.313038,38.3609141 117.263535,38.4716677 C117.213103,38.58454 117.144568,38.6845202 117.059857,38.7687912 C116.975078,38.8531299 116.874599,38.9213085 116.761182,38.9714564 C116.649805,39.0206802 116.526873,39.0456302 116.395763,39.0456302 M118.260582,33.1895046 C118.164543,32.9602667 118.02616,32.7586609 117.849239,32.5903217 C117.672862,32.4225235 117.457811,32.2893442 117.210112,32.1945703 C116.963637,32.1002471 116.689635,32.0523981 116.395763,32.0523981 L114.517576,32.0523981 C114.223705,32.0523981 113.949703,32.1002471 113.703227,32.1945703 C113.455529,32.2893442 113.240478,32.4225235 113.064123,32.5903217 C112.887179,32.7586609 112.748773,32.9602667 112.65278,33.1895046 C112.557058,33.4179988 112.508506,33.6719613 112.508506,33.9442475 L112.508506,38.1081461 C112.508506,38.3804549 112.557058,38.6343723 112.65278,38.862889 C112.748751,39.0921269 112.887157,39.2937102 113.0641,39.4620944 C113.2405,39.6299378 113.455551,39.7630945 113.703227,39.8578459 C113.949703,39.952169 114.223705,39.9999955 114.517576,39.9999955 L116.395763,39.9999955 C116.689635,39.9999955 116.963637,39.952169 117.210112,39.8578459 C117.457788,39.7630945 117.672839,39.6299378 117.849239,39.4620944 C118.026183,39.2937102 118.164589,39.0921269 118.260582,38.862889 C118.356259,38.6344174 118.404788,38.3804774 118.404788,38.1081461 L118.404788,33.9442475 C118.404788,33.6718937 118.356259,33.4179762 118.260582,33.1895046" id="Fill-22" fill="#FFFFFF" mask="url(#mask-2)"></path>
                    <path d="M122.383143,33.1135525 L124.774353,33.1135525 C124.905486,33.1135525 125.028418,33.1385025 125.139795,33.1877264 C125.253211,33.2378743 125.353691,33.3060529 125.43847,33.390414 C125.523158,33.47464 125.591692,33.5745977 125.64217,33.687515 C125.691628,33.7982686 125.716708,33.9205844 125.716708,34.0510366 L125.716708,35.0653089 C125.716708,35.1957611 125.691628,35.3180769 125.64217,35.428808 C125.591715,35.5417253 125.523181,35.641683 125.43847,35.7259315 C125.353691,35.8102701 125.253211,35.8784487 125.13975,35.9285966 C125.028463,35.9778204 124.905531,36.0027704 124.774353,36.0027704 L122.383143,36.0027704 L122.383143,33.1135525 Z M125.409357,36.8565244 C125.626515,36.7936423 125.826228,36.7022041 126.00401,36.5842832 C126.197379,36.4611786 126.376362,36.2779415 126.536065,36.0397108 C126.700185,35.7947637 126.783423,35.4669654 126.783423,35.0653089 L126.783423,34.0510366 C126.783423,33.7787504 126.734917,33.524833 126.639195,33.2962938 C126.543156,33.0670333 126.404773,32.86545 126.227852,32.6971108 C126.05152,32.5292675 125.836468,32.3961107 125.588702,32.3013143 C125.342159,32.2069912 125.068179,32.1591647 124.774353,32.1591647 L121.316428,32.1591647 L121.316428,39.8932334 L122.383143,39.8932334 L122.383143,36.9571583 L124.322251,36.9571583 L125.985794,39.8932334 L126.998044,39.8932334 L126.998044,39.4056606 L125.409357,36.8565244 Z" id="Fill-23" fill="#FFFFFF" mask="url(#mask-2)"></path>
                    <polygon id="Fill-24" fill="#FFFFFF" mask="url(#mask-2)" points="130.80897 38.9388478 130.80897 32.159167 129.742278 32.159167 129.742278 39.8932357 134.833636 39.8932357 134.833636 38.9388478"></polygon>
                    <path d="M140.943459,38.9388478 L138.444904,38.9388478 L138.444904,33.1135548 L140.943459,33.1135548 C141.074546,33.1135548 141.197501,33.1385048 141.308855,33.1877286 C141.422294,33.2378765 141.522819,33.3060551 141.607575,33.3903938 C141.692241,33.4746422 141.760821,33.5746 141.811276,33.6875398 C141.860757,33.7982033 141.885814,33.9205191 141.885814,34.0510388 L141.885814,38.0013863 C141.885814,38.1319061 141.860757,38.2542219 141.811276,38.3648854 C141.760821,38.4777801 141.692309,38.5777604 141.607575,38.6620089 C141.522819,38.7463475 141.422294,38.8145261 141.308855,38.864674 C141.197546,38.9138979 141.074592,38.9388478 140.943459,38.9388478 M142.808278,33.296296 C142.712262,33.0670581 142.573901,32.8654748 142.396912,32.6970906 C142.220535,32.5292472 142.005551,32.3960904 141.757853,32.3013165 C141.511264,32.2069934 141.237285,32.159167 140.943459,32.159167 L137.378212,32.159167 L137.378212,39.8932357 L140.943459,39.8932357 C141.23733,39.8932357 141.51131,39.8454092 141.757853,39.7510861 C142.005551,39.6563122 142.220535,39.5231554 142.396912,39.3553121 C142.573856,39.1869729 142.712262,38.9853671 142.808278,38.7561292 C142.903977,38.5276801 142.952552,38.2737176 142.952552,38.0013863 L142.952552,34.0510388 C142.952552,33.7787076 142.903977,33.5247451 142.808278,33.296296" id="Fill-25" fill="#FFFFFF" mask="url(#mask-2)"></path>
                    <path d="M151.344223,33.6875353 C151.394678,33.5745729 151.463235,33.4746152 151.547969,33.3903893 C151.632657,33.3060506 151.733182,33.2379171 151.846644,33.1877241 C151.957975,33.1385003 152.080953,33.1135503 152.21204,33.1135503 L155.163988,33.1135503 L155.455299,32.8237292 L155.455299,32.1591625 L152.21204,32.1591625 C151.918214,32.1591625 151.644235,32.2069889 151.397691,32.301312 C151.149993,32.3960634 150.934964,32.5292427 150.758564,32.697086 C150.581575,32.8654928 150.443237,33.0670761 150.347221,33.296269 C150.251522,33.5246729 150.202993,33.7786354 150.202993,34.0510343 L150.202993,38.0014044 C150.202993,38.2738033 150.251522,38.5277432 150.347221,38.7561021 C150.443237,38.9853626 150.58162,39.1869684 150.758564,39.3553076 C150.934964,39.5231509 151.149993,39.6563302 151.397691,39.7510816 C151.644167,39.8454047 151.918169,39.8932312 152.21204,39.8932312 L155.455299,39.8932312 L155.455299,38.9388433 L152.21204,38.9388433 C152.080885,38.9388433 151.95793,38.9138933 151.846644,38.8646695 C151.733182,38.8145216 151.632657,38.746343 151.547969,38.6620269 C151.463235,38.5777784 151.394678,38.4777982 151.344223,38.3649485 C151.294788,38.2541273 151.269685,38.1318115 151.269685,38.0014044 L151.269685,34.0510343 C151.269685,33.9206273 151.294788,33.7983114 151.344223,33.6875353" id="Fill-26" fill="#FFFFFF" mask="url(#mask-2)"></path>
                    <polygon id="Fill-27" fill="#FFFFFF" mask="url(#mask-2)" points="162.628639 32.1591602 162.628639 35.4689443 159.187729 35.4689443 159.187729 32.1591602 158.121037 32.1591602 158.121037 39.8932289 159.187729 39.8932289 159.187729 36.4233321 162.628639 36.4233321 162.628639 39.8932289 163.695377 39.8932289 163.695377 32.1591602"></polygon>
                    <path d="M170.67158,37.017045 L168.301077,37.017045 L169.486329,33.5741943 L170.67158,37.017045 Z M170.065395,32.2446551 L170.033993,32.159167 L168.938732,32.159167 L166.277892,39.3980449 L166.269917,39.4196817 L166.269917,39.8932357 L167.300043,39.8932357 L167.943973,37.9714328 L171.028684,37.9714328 L171.672683,39.8932357 L172.702808,39.8932357 L172.702808,39.4196817 L170.065395,32.2446551 Z" id="Fill-28" fill="#FFFFFF" mask="url(#mask-2)"></path>
                    <polygon id="Fill-29" fill="#FFFFFF" mask="url(#mask-2)" points="182.788574 32.1591602 181.620859 32.1591602 179.427527 37.4061409 177.23424 32.1591602 176.066524 32.1591602 175.085359 39.4253997 175.084181 39.8932289 176.136146 39.8932289 176.854162 33.9239381 178.937997 38.8789566 179.917146 38.8789566 182.000937 33.9240058 182.718952 39.8932289 183.770895 39.8932289 183.770895 39.4427543"></polygon>
                    <path d="M190.026706,36.429839 L187.635451,36.429839 L187.635451,33.1135413 L190.026706,33.1135413 C190.157794,33.1135413 190.280748,33.1384913 190.392103,33.1877376 C190.505542,33.2379081 190.606044,33.3060641 190.690778,33.3904028 C190.775488,33.4746062 190.844046,33.5745639 190.894523,33.6874812 C190.943936,33.7983024 190.969062,33.9206182 190.969062,34.0510253 L190.969062,35.4923549 C190.969062,35.622762 190.943936,35.7450778 190.894523,35.855854 C190.844046,35.9687938 190.775488,36.0687515 190.690778,36.153 C190.606044,36.2373161 190.505542,36.3054947 190.392103,36.3556652 C190.280748,36.404889 190.157794,36.429839 190.026706,36.429839 M191.891525,33.2962825 C191.795486,33.0670671 191.657103,32.8654838 191.480137,32.697077 C191.30376,32.5292337 191.088731,32.3960769 190.841032,32.3013256 C190.594512,32.2070024 190.320532,32.1591534 190.026706,32.1591534 L186.568759,32.1591534 L186.568759,39.8932447 L187.635451,39.8932447 L187.635451,37.3842268 L190.026706,37.3842268 C190.320532,37.3842268 190.594512,37.3364004 190.841032,37.2420772 C191.088731,37.1473259 191.30376,37.0141466 191.480137,36.8463032 C191.657103,36.677919 191.795486,36.4763357 191.891525,36.2471203 C191.987225,36.0187163 192.035731,35.7647764 192.035731,35.4923549 L192.035731,34.0510253 C192.035731,33.7786264 191.987225,33.5246865 191.891525,33.2962825" id="Fill-30" fill="#FFFFFF" mask="url(#mask-2)"></path>
                    <polygon id="Fill-31" fill="#FFFFFF" mask="url(#mask-2)" points="194.778835 39.8932312 195.845527 39.8932312 195.845527 32.1591625 194.778835 32.1591625"></polygon>
                    <path d="M202.630461,39.0456302 L200.75232,39.0456302 C200.621209,39.0456302 200.498278,39.0206802 200.386923,38.9714564 C200.273484,38.9212859 200.172959,38.8531299 200.088248,38.7687687 C200.003537,38.6845653 199.934958,38.5846076 199.884503,38.4716903 C199.834999,38.360869 199.809964,38.2385532 199.809964,38.1081461 L199.809964,33.9442475 C199.809964,33.8138404 199.834999,33.6915246 199.884503,33.5807484 C199.934958,33.4678537 200.003537,33.3678734 200.088248,33.2836024 C200.172959,33.1993088 200.273484,33.1311302 200.386923,33.0809823 C200.498232,33.031736 200.621164,33.006786 200.75232,33.006786 L202.630461,33.006786 C202.761594,33.006786 202.884571,33.031736 202.995858,33.0809823 C203.109365,33.1311528 203.209867,33.1993314 203.294578,33.2836024 C203.379357,33.3679636 203.447914,33.4679213 203.498278,33.5807484 C203.547759,33.691502 203.572885,33.8138179 203.572885,33.9442475 L203.572885,38.1081461 C203.572885,38.2385758 203.547759,38.3608916 203.498278,38.4716903 C203.447869,38.5844949 203.379357,38.6844751 203.294578,38.7687912 C203.209867,38.8530623 203.109433,38.9212409 202.995858,38.9714564 C202.884503,39.0206802 202.761549,39.0456302 202.630461,39.0456302 M204.495348,33.1894821 C204.399196,32.9601991 204.260813,32.7586158 204.08396,32.5903443 C203.907628,32.422546 203.692599,32.2893667 203.444833,32.1945703 C203.198358,32.1002471 202.924401,32.0523981 202.630461,32.0523981 L200.75232,32.0523981 C200.458448,32.0523981 200.184469,32.1002471 199.937971,32.1945703 C199.690295,32.2893216 199.475244,32.4224784 199.298866,32.5903217 C199.121923,32.7586609 198.983517,32.9602667 198.8875,33.1894821 C198.791779,33.4179086 198.743272,33.6718486 198.743272,33.9442475 L198.743272,38.1081461 C198.743272,38.3805676 198.791779,38.6345075 198.8875,38.862889 C198.983517,39.0921269 199.121877,39.2937102 199.298866,39.4620944 C199.475244,39.6299603 199.69034,39.7631171 199.937971,39.8578459 C200.184469,39.952169 200.458448,39.9999955 200.75232,39.9999955 L202.630461,39.9999955 C202.924401,39.9999955 203.198358,39.952169 203.444833,39.8578459 C203.692599,39.763072 203.907628,39.6299152 204.083915,39.4620944 C204.260858,39.2937553 204.399264,39.0921494 204.495348,38.862889 C204.591025,38.6343498 204.639554,38.3804324 204.639554,38.1081461 L204.639554,33.9442475 C204.639554,33.6719613 204.591025,33.4180438 204.495348,33.1894821" id="Fill-32" fill="#FFFFFF" mask="url(#mask-2)"></path>
                    <polygon id="Fill-33" fill="#FFFFFF" mask="url(#mask-2)" points="212.005086 32.1591602 212.005086 37.0405007 212.077676 37.9844082 208.615242 32.1591602 207.55111 32.1591602 207.55111 39.8932289 208.617802 39.8932289 208.617802 35.0119335 208.54519 34.068026 212.007623 39.8932289 213.071778 39.8932289 213.071778 32.1591602"></polygon>
                    <path d="M220.731425,36.276037 C220.455951,35.967757 220.110672,35.7689685 219.706081,35.6854187 L217.719915,35.2582037 C217.476182,35.2071542 217.286233,35.1105773 217.155372,34.9711323 C217.0292,34.8366457 216.965265,34.6348371 216.965265,34.3713183 L216.965265,34.0510253 C216.965265,33.9206182 216.990345,33.7983024 217.039803,33.6875263 C217.090236,33.5745639 217.158816,33.4746062 217.243527,33.3903802 C217.328238,33.3060641 217.428763,33.2379081 217.542201,33.1877376 C217.653533,33.1384913 217.77651,33.1135413 217.907598,33.1135413 L220.698551,33.1135413 L220.989908,32.8237427 L220.989908,32.1591534 L217.907598,32.1591534 C217.613794,32.1591534 217.339792,32.2070024 217.093272,32.301303 C216.84555,32.3960769 216.630522,32.5292337 216.454145,32.697077 C216.277156,32.8654838 216.138795,33.0670671 216.042779,33.2962599 C215.94708,33.5246865 215.898573,33.7786264 215.898573,34.0510253 L215.898573,34.3713183 C215.898573,34.8858921 216.039675,35.304768 216.317982,35.6162259 C216.593457,35.9245059 216.93878,36.1232944 217.343327,36.2068442 L219.329492,36.6340593 C219.573271,36.6851087 219.763219,36.7816857 219.894035,36.9211306 C220.020207,37.0556172 220.084187,37.2574259 220.084187,37.5209446 L220.084187,38.0013954 C220.084187,38.1318024 220.059107,38.2541182 220.009626,38.3648944 C219.959171,38.4777666 219.890659,38.5777694 219.805926,38.6620179 C219.72117,38.746334 219.620667,38.8145126 219.507228,38.8646605 C219.395919,38.9139069 219.272965,38.9388569 219.141832,38.9388569 L215.791183,38.9388569 L215.791183,39.8932447 L219.141832,39.8932447 C219.435703,39.8932447 219.70966,39.8453957 219.956135,39.7510951 C220.203857,39.6563212 220.418885,39.5231644 220.595263,39.3553211 C220.772229,39.1869594 220.910612,38.9853535 221.006628,38.7561382 C221.102328,38.5277342 221.150857,38.2737943 221.150857,38.0013954 L221.150857,37.5209446 C221.150857,37.0063708 221.009755,36.587495 220.731425,36.276037" id="Fill-34" fill="#FFFFFF" mask="url(#mask-2)"></path>
                    <polygon id="Fill-35" fill="#FFFFFF" mask="url(#mask-2)" points="228.372511 32.1591602 228.372511 35.4689443 224.931601 35.4689443 224.931601 32.1591602 223.864909 32.1591602 223.864909 39.8932289 224.931601 39.8932289 224.931601 36.4233321 228.372511 36.4233321 228.372511 39.8932289 229.439248 39.8932289 229.439248 32.1591602"></polygon>
                    <polygon id="Fill-36" fill="#FFFFFF" mask="url(#mask-2)" points="232.461282 39.8932312 233.527974 39.8932312 233.527974 32.1591625 232.461282 32.1591625"></polygon>
                    <path d="M239.990927,36.429839 L237.599695,36.429839 L237.599695,33.1135413 L239.990927,33.1135413 C240.122015,33.1135413 240.244992,33.1384913 240.356347,33.1877376 C240.469786,33.2379081 240.570288,33.3060641 240.655021,33.3904028 C240.739732,33.4746062 240.80829,33.5745639 240.858745,33.6874812 C240.90818,33.7983024 240.933283,33.9206182 240.933283,34.0510253 L240.933283,35.4923549 C240.933283,35.622762 240.90818,35.7450778 240.858745,35.855854 C240.80829,35.9687938 240.739732,36.0687515 240.655021,36.153 C240.570288,36.2373161 240.469786,36.3054947 240.356347,36.3556652 C240.244992,36.404889 240.122015,36.429839 239.990927,36.429839 M241.855769,33.2962825 C241.75973,33.0670671 241.621347,32.8654838 241.444381,32.697077 C241.268003,32.5292337 241.052975,32.3960769 240.805254,32.3013256 C240.558733,32.2070024 240.284754,32.1591534 239.990927,32.1591534 L236.533002,32.1591534 L236.533002,39.8932447 L237.599695,39.8932447 L237.599695,37.3842268 L239.990927,37.3842268 C240.284754,37.3842268 240.558733,37.3364004 240.805254,37.2420772 C241.052975,37.1473259 241.268003,37.0141466 241.444381,36.8463032 C241.621347,36.677919 241.75973,36.4763357 241.855769,36.2471203 C241.951446,36.0187163 241.999975,35.7647764 241.999975,35.4923549 L241.999975,34.0510253 C241.999975,33.7786264 241.951446,33.5246865 241.855769,33.2962825" id="Fill-37" fill="#FFFFFF" mask="url(#mask-2)"></path>
                    <polygon id="Fill-38" fill="#FFFFFF" mask="url(#mask-2)" points="88.213346 2.25383831e-06 88.2133687 28.2921191 93.898655 28.2921191 105.501294 19.1175998 101.337406 15.8250575 93.8987683 21.7071022 93.8987456 2.25383831e-06"></polygon>
                    <polygon id="Fill-39" fill="#FF0000" mask="url(#mask-2)" points="129.678479 28.2921304 121.350682 28.2921304 103.460763 14.1460494 121.373179 1.35230299e-05 129.678479 1.35230299e-05 111.788583 14.1460494"></polygon>
                    <path d="M32.9234965,11.316849 C32.9231793,11.316849 8.53194866,11.316849 8.53194866,11.316849 L8.53192601,11.316849 C6.96125009,11.316849 5.68795747,10.1538459 5.68795747,8.48765083 C5.68795747,6.9251098 6.96125009,5.65843013 8.53192601,5.65843013 L8.53194866,5.65843013 L33.6348511,5.65845267 L40.7754488,1.12691916e-05 L8.53328537,1.12691916e-05 C8.5328549,1.12691916e-05 8.53240178,1.12691916e-05 8.53194866,1.12691916e-05 C3.81989825,1.12691916e-05 -2.26560492e-06,3.80005028 -2.26560492e-06,8.48762829 C-2.26560492e-06,13.4862585 3.81987559,16.9752678 8.53194866,16.9752904 C8.53226585,16.9752904 8.53258303,16.9752678 8.53290022,16.9752678 L32.9234965,16.9752678 L32.9235192,16.9752678 C34.4941951,16.9752904 35.7674877,18.1382935 35.7674877,19.8044885 C35.7674877,21.367007 34.4941951,22.6336867 32.9235192,22.6336867 L32.9234965,22.6336867 L7.82059403,22.6336867 L0.679996394,28.2921281 L32.9221598,28.2921281 C32.9226129,28.2921281 32.9230434,28.2921281 32.9234965,28.2921281 C37.6355696,28.2921281 41.4554474,24.4920891 41.4554474,19.8044885 C41.4554474,14.8058583 37.6355696,11.316849 32.9234965,11.316849" id="Fill-40" fill="#FFFFFF" mask="url(#mask-2)"></path>
                    <path d="M77.0312649,11.3168625 C77.030472,11.3168625 77.0297017,11.3168625 77.0289087,11.3168625 C77.0285915,11.3168625 77.0282743,11.3168625 77.0279572,11.3168625 L49.7920556,11.3168625 L49.7920556,5.65844365 L77.0289087,5.65844365 L77.0289087,5.65844365 C78.5996073,5.65844365 79.8728999,6.82144676 79.8728999,8.48766435 C79.8728999,10.0494165 78.600876,11.3155778 77.0312649,11.3168625 M77.0289087,22.6336777 L77.0289087,22.6336777 L49.7920556,22.6336777 L49.7920556,16.9752814 L77.027572,16.9752814 C77.0280251,16.9752814 77.0284556,16.9752814 77.0289087,16.9752814 C77.0297243,16.9752814 77.0305173,16.9752814 77.0313329,16.9752814 C78.6008987,16.9764759 79.8728999,18.1391184 79.8728999,19.8044795 C79.8728999,21.366998 78.5996073,22.6336777 77.0289087,22.6336777 M85.5608596,8.48766435 C85.5608596,3.48903412 81.7409818,2.47922215e-05 77.0289087,2.47922215e-05 C77.0285915,2.47922215e-05 77.0282743,2.47922215e-05 77.0279572,2.47922215e-05 L44.106656,2.47922215e-05 L44.106656,2.47922215e-05 L44.106656,28.2921191 L44.106656,28.2921191 L77.027572,28.2921191 C77.0280251,28.2921191 77.0284556,28.2921191 77.0289087,28.2921191 C81.7409818,28.2921191 85.5608596,24.4920575 85.5608596,19.8044795 C85.5608596,17.5185466 84.7618941,15.5484214 83.4441503,14.0832237 C84.7618941,12.5893345 85.5608596,10.6313576 85.5608596,8.48766435" id="Fill-41" fill="#FFFFFF" mask="url(#mask-2)"></path>
                    <polygon id="Fill-42" fill="#FFFFFF" mask="url(#mask-2)" points="131.770536 1.4143737 131.506571 1.4143737 131.506571 0.222634149 131.100484 0.222634149 131.100484 0.000450767663 132.176623 0.000450767663 132.176623 0.151931241 132.105551 0.222634149 131.770536 0.222634149"></polygon>
                    <polygon id="Fill-43" fill="#FFFFFF" mask="url(#mask-2)" points="133.181693 1.2224819 132.866955 0.404428747 132.846656 0.404428747 132.745134 1.4143737 132.471041 1.4143737 132.471041 1.30328201 132.643612 0.000450767663 132.95835 0.000450767663 133.293365 0.868989901 133.313665 0.868989901 133.64868 0.000450767663 133.963395 0.000450767663 134.136011 1.30328201 134.136011 1.4143737 133.861896 1.4143737 133.760374 0.404428747 133.740074 0.404428747 133.425336 1.2224819"></polygon>
                    <polygon id="Fill-44" fill="#FFFFFF" mask="url(#mask-2)" points="167.122435 23.5833234 167.122435 4.71200285 159.757814 4.71200285 156.546274 12.3772168 155.427903 4.71200285 148.235174 4.71200285 142.686527 23.5666901 149.474709 23.5666901 151.60798 15.2271728 152.867271 23.5833234 157.277294 23.5833234 160.873625 15.3486998 160.508658 23.5833234"></polygon>
                    <polygon id="Fill-45" fill="#FFFFFF" mask="url(#mask-2)" points="199.668004 23.5667397 201.189901 10.5738126 204.158138 10.6943479 204.786254 4.70346531 186.784687 4.70346531 191.375686 10.6943479 194.109229 10.5995289 192.471763 23.5667397"></polygon>
                    <path d="M213.344604,4.70366816 L206.29232,4.70366816 L204.86875,16.5013397 C204.86875,17.4726539 204.808938,18.5423481 205.15263,19.4304731 C205.947042,21.8971188 208.731266,23.4751437 211.16772,23.9209755 C214.236845,24.3435927 217.406834,24.0813361 219.785991,22.3656467 C221.431092,21.1920731 222.285315,19.4516366 222.611291,17.6113776 L224.094605,4.70366816 L217.222821,4.70366816 L215.621333,16.3389507 C215.498628,16.8866559 215.334394,17.4096366 214.888772,17.7954486 C214.380779,18.2821199 213.568151,18.3804549 212.917243,18.1378743 C212.28455,17.8362882 211.961112,17.1282223 212.002686,16.4211482 L213.344604,4.70366816 Z" id="Fill-46" fill="#FFFFFF" mask="url(#mask-2)"></path>
                    <polygon id="Fill-47" fill="#FFFFFF" mask="url(#mask-2)" points="226.024556 4.70368619 223.52326 23.5664422 235.555389 23.5664422 237.220224 17.602786 231.572229 17.602786 233.174193 4.70368619"></polygon>
                    <path d="M182.211794,16.2991231 C181.480751,17.4726742 180.240219,18.1580664 178.83849,18.0370128 C177.762214,17.9361535 176.745252,17.2679355 176.257581,16.2991231 C175.566571,15.1457214 175.729831,13.5702208 176.379742,12.4375092 C177.151837,11.0818706 178.594643,10.3743006 180.119078,10.5785659 C181.032094,10.7404591 181.987703,11.3663275 182.39379,12.2564584 C183.006183,13.4264709 182.963612,15.2077695 182.211794,16.2991231 L182.211794,16.2991231 Z M184.467249,5.4031897 C182.942814,4.65478015 181.216106,4.35116559 179.42757,4.31233196 C175.28115,4.12826098 171.258954,6.51471514 169.552024,10.3359853 C168.087922,13.7714434 168.657745,18.2387538 171.462246,20.8884788 C174.631239,24.0011873 180.037448,24.8912957 184.080918,22.9889885 C187.39543,21.4729893 189.772571,18.097055 189.831884,14.4830478 C189.873436,13.3891699 189.854178,12.2347765 189.385243,11.3269755 L185.179533,5.94936234 L184.467249,5.4031897 Z" id="Fill-48" fill="#FFFFFF" mask="url(#mask-2)"></path>
                </g>
            </g>
        </g>
    </g>
</svg>