<?xml version="1.0" encoding="utf-8"?>
<!-- Generator: Adobe Illustrator 26.0.2, SVG Export Plug-In . SVG Version: 6.00 Build 0)  -->
<svg version="1.1" id="Capa_1" xmlns="http://www.w3.org/2000/svg" xmlns:xlink="http://www.w3.org/1999/xlink" x="0px" y="0px"
	 viewBox="0 0 646.9 61.9" style="enable-background:new 0 0 646.9 61.9;" xml:space="preserve">
<style type="text/css">
	.st0{fill:#FFFFFF;}
	.st1{fill:#FF0000;}
</style>
<g>
	<g>
		<g>
			<polygon class="st0" points="189.1,0 189.1,61 201.3,61 226.2,41.2 217.3,34.1 201.3,46.8 201.3,0 			"/>
			<polygon class="st1" points="278,61 260.2,61 221.8,30.5 260.2,0 278,0 239.7,30.5 			"/>
			<path class="st0" d="M70.6,24.4H18.3l0,0c-3.4,0-6.1-2.5-6.1-6.1c0-3.4,2.7-6.1,6.1-6.1l0,0h53.8L87.4,0H18.3l0,0
				C8.2,0,0,8.2,0,18.3c0,10.8,8.2,18.3,18.3,18.3l0,0h52.3l0,0c3.4,0,6.1,2.5,6.1,6.1c0,3.4-2.7,6.1-6.1,6.1l0,0H16.8L1.5,61h69.1
				l0,0c10.1,0,18.3-8.2,18.3-18.3C88.9,31.9,80.7,24.4,70.6,24.4z"/>
			<path class="st0" d="M183.5,18.3c0-10.8-8.2-18.3-18.3-18.3l0,0H94.6l0,0v61l0,0h70.6l0,0c10.1,0,18.3-8.2,18.3-18.3
				c0-4.9-1.7-9.2-4.5-12.3C181.7,27.1,183.5,22.9,183.5,18.3z M165.2,48.8L165.2,48.8h-58.4V36.6h58.4l0,0l0,0
				c3.4,0,6.1,2.5,6.1,6.1C171.3,46.1,168.5,48.8,165.2,48.8z M165.2,24.4L165.2,24.4L165.2,24.4h-58.4V12.2h58.4l0,0
				c3.4,0,6.1,2.5,6.1,6.1C171.3,21.7,168.5,24.4,165.2,24.4z"/>
			<path class="st0" d="M282.5,3H282V0.4h-0.9V0h2.3v0.3l-0.2,0.2h-0.7L282.5,3L282.5,3z"/>
			<path class="st0" d="M285.6,2.6l-0.7-1.8l0,0L284.6,3H284V2.8l0.4-2.8h0.7l0.7,1.9l0,0l0.7-1.9h0.7l0.4,2.8V3H287l-0.2-2.2l0,0
				l-0.7,1.8H285.6z"/>
		</g>
	</g>
	<g>
		<path class="st0" d="M304.5,61.9h-6.6v-2.7L319.5,0h7.5l21.6,59.2v2.7H342L336.7,46h-27L304.5,61.9z M323.5,8H323l-11,32.3h22.5
			L323.5,8z"/>
		<path class="st0" d="M394.2,9.8l13.3,42.4h0.4L421.6,0h6.6v2.7l-15.9,59.2h-8.4l-13.7-43.3h-0.4l-13.7,43.3h-8.4L351.8,2.7V0h6.6
			l13.7,52.1h0.4l13.3-42.4h8.4V9.8z"/>
		<path class="st0" d="M437.9,61.9h-6.6v-2.7L452.9,0h7.5L482,59.2v2.7h-6.6L470.2,46h-27L437.9,61.9z M456.9,8h-0.4l-11,32.3H468
			L456.9,8z"/>
		<path class="st0" d="M492.3,61.9V0h27.4c2.3,0,4.4,0.4,6.3,1.1c1.9,0.7,3.5,1.8,4.9,3c1.4,1.3,2.4,2.8,3.1,4.6
			c0.7,1.8,1.1,3.7,1.1,5.8V23c0,3.1-0.6,5.6-1.9,7.5c-1.2,1.9-2.6,3.3-4.1,4.2c-1.8,1.2-3.8,2-6,2.5l13.7,22.1V62h-6.6l-13.7-24.3
			h-17.7V62h-6.5V61.9z M498.9,5.8v26.1h20.8c1.2,0,2.4-0.2,3.4-0.7c1.1-0.5,2-1.1,2.8-1.9s1.4-1.7,1.9-2.8c0.5-1.1,0.7-2.2,0.7-3.4
			v-8.4c0-1.2-0.2-2.4-0.7-3.4c-0.5-1.1-1.1-2-1.9-2.8c-0.8-0.8-1.7-1.4-2.8-1.9s-2.2-0.7-3.4-0.7h-20.8V5.8z"/>
		<path class="st0" d="M550.1,0h28.3c2.3,0,4.4,0.4,6.3,1.1c1.9,0.7,3.5,1.8,4.9,3c1.4,1.3,2.4,2.8,3.1,4.6c0.7,1.8,1.1,3.7,1.1,5.8
			v32.7c0,2.1-0.4,4.1-1.1,5.8s-1.8,3.3-3.1,4.6c-1.4,1.3-3,2.3-4.9,3s-4,1.1-6.3,1.1h-28.3V0z M556.8,56.2h21.6
			c1.2,0,2.4-0.2,3.4-0.7c1.1-0.5,2-1.1,2.8-1.9c0.8-0.8,1.4-1.7,1.9-2.8s0.7-2.2,0.7-3.4V14.6c0-1.2-0.2-2.4-0.7-3.4
			s-1.1-2-1.9-2.8c-0.8-0.8-1.7-1.4-2.8-1.9s-2.2-0.7-3.4-0.7h-21.6V56.2z"/>
		<path class="st0" d="M605.8,14.6c0-2.1,0.4-4.1,1.1-5.8c0.7-1.8,1.8-3.3,3.1-4.6c1.4-1.3,3-2.3,4.9-3s4-1.1,6.3-1.1h24.3v4
			l-1.8,1.8h-22.5c-1.2,0-2.4,0.2-3.4,0.7c-1.1,0.5-2,1.1-2.8,1.9s-1.4,1.7-1.9,2.8s-0.7,2.2-0.7,3.4v2.7c0,2.5,0.6,4.4,1.9,5.7
			c1.2,1.3,3,2.2,5.2,2.7l16.3,3.5c3.1,0.6,5.7,2.2,7.9,4.6c2.1,2.4,3.2,5.6,3.2,9.6v4c0,2.1-0.4,4.1-1.1,5.8s-1.8,3.3-3.1,4.6
			c-1.4,1.3-3,2.3-4.9,3s-4,1.1-6.3,1.1H605v-5.7h26.5c1.2,0,2.4-0.2,3.4-0.7s2-1.1,2.8-1.9c0.8-0.8,1.4-1.7,1.9-2.8
			s0.7-2.2,0.7-3.4v-4c0-2.5-0.6-4.4-1.9-5.7c-1.2-1.3-3-2.2-5.2-2.7l-16.3-3.5c-3.1-0.6-5.7-2.2-7.9-4.6s-3.2-5.6-3.2-9.6V14.6z"/>
	</g>
</g>
</svg>
