<svg id="Capa_1" data-name="Capa 1" xmlns="http://www.w3.org/2000/svg" viewBox="0 0 878.07 49.6">
  <defs>
    <style>
      .cls-1 {
        fill: #fff;
      }

      .cls-2 {
        fill: #e52729;
      }

      .cls-3 {
        fill: #0f0f19;
      }

      .cls-4 {
        fill: red;
      }
    </style>
  </defs>
  <g>
    <g>
      <path class="cls-1" d="M47.65,48H0V1.24H47.65ZM3.22,44.8H44.43V4.46H3.22Z"/>
      <polygon points="158.17 1.06 105.66 1.06 105.66 12.05 124.51 12.05 124.51 48.25 139.66 48.25 139.66 12.05 158.17 12.05 158.17 1.06"/>
      <rect x="162.79" y="1.06" width="15.39" height="47.19"/>
      <polygon points="393.06 1.06 340.56 1.06 340.56 12.05 359.41 12.05 359.41 48.25 374.56 48.25 374.56 12.05 393.06 12.05 393.06 1.06"/>
      <path d="M287.68,24.54C287.66,8.12,299.91,0,315,0s27.3,9.16,27.32,24.54S330.08,49.07,315,49.07,287.7,42,287.68,24.54M315,40.73c8,0,11.78-7.25,11.78-16.19S322.4,8.35,315,8.34c-8.67,0-12,7.25-12,16.2s3.45,16.19,12,16.19"/>
      <path d="M282.38,16.33H268.73a9.76,9.76,0,0,0-4-5.93A10.54,10.54,0,0,0,256,9.23c-2.27.59-4.78,2.57-3.83,5.2.56,1.58,2.24,2.3,3.83,2.73,7.61,2.07,15.23,2.47,22.13,6.66a10.76,10.76,0,0,1,5.2,9.39c-.22,16.07-19.87,18-32.65,15.43-8.25-1.7-16.13-7.8-15.52-16.82h14.35c.87,1.94.52,3.94,1.86,5.78A7.66,7.66,0,0,0,254,40a13.14,13.14,0,0,0,2.52,1.18,12.66,12.66,0,0,0,7.09-.07,6.32,6.32,0,0,0,3.9-3.35,4,4,0,0,0,.06-3,7.67,7.67,0,0,0-.82-1.53c-1.1-1.74-3.08-2.16-5-2.76-8.33-2.62-19.31-1.56-23.89-10.36a12,12,0,0,1-.72-8.47,10.66,10.66,0,0,1,3.3-5.17,17.78,17.78,0,0,1,4.7-3.4,34.17,34.17,0,0,1,27.65.22c5.13,2.25,9.37,7,9.59,13"/>
      <path d="M230.36,16.13H216.71a9.76,9.76,0,0,0-4-5.93A10.5,10.5,0,0,0,204,9c-2.26.6-4.78,2.57-3.83,5.2.56,1.59,2.24,2.3,3.84,2.73,7.6,2.07,15.23,2.47,22.12,6.67a10.73,10.73,0,0,1,5.2,9.38c-.21,16.07-19.87,18-32.65,15.42-8.26-1.69-16.13-7.79-15.51-16.8h14.33c.88,1.93.54,3.93,1.87,5.77A7.61,7.61,0,0,0,202,39.84,12.78,12.78,0,0,0,204.48,41a12.65,12.65,0,0,0,7.09-.07,6.32,6.32,0,0,0,3.9-3.35,4,4,0,0,0,.06-3,7.19,7.19,0,0,0-.82-1.53c-1.1-1.74-3.07-2.16-5-2.76-8.33-2.62-19.32-1.56-23.9-10.35a12.05,12.05,0,0,1-.72-8.48,10.63,10.63,0,0,1,3.3-5.17A17.45,17.45,0,0,1,193.13,3a34.19,34.19,0,0,1,27.64.22c5.13,2.25,9.37,7,9.59,13"/>
      <path class="cls-1" d="M97.39,48.18H49.68V1H97.39ZM52.9,45H94.17V4.25H52.9Z"/>
      <rect x="1.61" y="2.85" width="44.43" height="43.56"/>
      <polygon class="cls-1" points="40.54 8.69 7.57 8.69 7.57 16.07 19.14 16.07 19.14 41.06 29.15 41.06 29.15 16.07 40.54 16.07 40.54 8.69"/>
      <rect class="cls-2" x="51.29" y="2.64" width="44.49" height="43.93"/>
      <polygon class="cls-1" points="89.84 19.61 78.43 19.61 78.43 8.35 68.8 8.35 68.8 19.61 57.39 19.61 57.39 29.36 68.8 29.36 68.8 40.68 78.43 40.68 78.43 29.36 89.84 29.36 89.84 19.61"/>
    </g>
    <path class="cls-3" d="M434.34,12.4A11.38,11.38,0,0,1,435.18,8a10.13,10.13,0,0,1,2.38-3.48,10.75,10.75,0,0,1,3.72-2.31,13.17,13.17,0,0,1,4.79-.84h18.42v3L463.15,5.7H446.07a6.37,6.37,0,0,0-2.62.54,7.18,7.18,0,0,0-2.11,1.44,7.05,7.05,0,0,0-1.44,2.11,6.31,6.31,0,0,0-.53,2.61v2a6.16,6.16,0,0,0,1.4,4.33,7.36,7.36,0,0,0,4,2l12.39,2.68a10.69,10.69,0,0,1,6,3.45,10.53,10.53,0,0,1,2.41,7.27v3a11.34,11.34,0,0,1-.84,4.42,10.13,10.13,0,0,1-2.38,3.48,10.82,10.82,0,0,1-3.72,2.32,13.38,13.38,0,0,1-4.79.83h-20.1V43.9h20.1a6.37,6.37,0,0,0,2.62-.54,7.18,7.18,0,0,0,2.11-1.44,7.05,7.05,0,0,0,1.44-2.11,6.31,6.31,0,0,0,.53-2.61v-3a6.09,6.09,0,0,0-1.4-4.32,7.22,7.22,0,0,0-4-2l-12.39-2.68a10.76,10.76,0,0,1-6-3.46,10.58,10.58,0,0,1-2.41-7.27Z"/>
    <path class="cls-3" d="M496.8,48.92a13.42,13.42,0,0,1-4.79-.83,11,11,0,0,1-3.72-2.32,10.13,10.13,0,0,1-2.38-3.48,11.34,11.34,0,0,1-.84-4.42V1.35h5V37.87a6.44,6.44,0,0,0,.53,2.61,6.78,6.78,0,0,0,1.45,2.11A6.93,6.93,0,0,0,494.19,44a6.29,6.29,0,0,0,2.61.54h10.05a6.29,6.29,0,0,0,2.61-.54,7.1,7.1,0,0,0,2.12-1.44A6.93,6.93,0,0,0,513,40.48a6.44,6.44,0,0,0,.53-2.61V1.35h5V37.87a11.34,11.34,0,0,1-.84,4.42,10.13,10.13,0,0,1-2.38,3.48,11,11,0,0,1-3.72,2.32,13.42,13.42,0,0,1-4.79.83Z"/>
    <path class="cls-3" d="M540.15,48.25V1.35h20.77a13.2,13.2,0,0,1,4.79.84,10.84,10.84,0,0,1,3.72,2.31A10.13,10.13,0,0,1,571.81,8a11.38,11.38,0,0,1,.84,4.42v9a11.34,11.34,0,0,1-.84,4.42,10.27,10.27,0,0,1-2.38,3.49,11.15,11.15,0,0,1-3.72,2.31,13.2,13.2,0,0,1-4.79.84H545.17V48.25Zm5-42.55V28.15h15.75a6.29,6.29,0,0,0,2.61-.54,6.75,6.75,0,0,0,2.12-1.44,6.93,6.93,0,0,0,1.44-2.11,6.44,6.44,0,0,0,.53-2.61v-9a6.48,6.48,0,0,0-.53-2.61,6.86,6.86,0,0,0-3.56-3.55,6.29,6.29,0,0,0-2.61-.54Z"/>
    <path class="cls-3" d="M592.42,1.35h30.49v3L621.57,5.7H597.44V22.12h19.1v4.36h-19.1V43.9h25.47v4.35H592.42Z"/>
    <path class="cls-3" d="M642,48.25V1.35h20.77a13.2,13.2,0,0,1,4.79.84,10.84,10.84,0,0,1,3.72,2.31A10.13,10.13,0,0,1,673.66,8a11.38,11.38,0,0,1,.84,4.42v6.37a10,10,0,0,1-1.41,5.66A10.79,10.79,0,0,1,670,27.61a12.86,12.86,0,0,1-4.56,1.88l10.39,16.75v2h-5L660.42,29.83H647V48.25ZM647,5.7V25.47h15.75a6.29,6.29,0,0,0,2.61-.54,6.59,6.59,0,0,0,2.11-1.44,6.78,6.78,0,0,0,1.45-2.11,6.44,6.44,0,0,0,.53-2.61V12.4a6.48,6.48,0,0,0-.53-2.61,7,7,0,0,0-3.56-3.55,6.29,6.29,0,0,0-2.61-.54Z"/>
    <path class="cls-4" d="M728.38,27.31a9.07,9.07,0,0,1-2.25,3.29,10.61,10.61,0,0,1-3.48,2.14,12.75,12.75,0,0,1-4.56.77H703.35V48.25h-8.71V1.35h23.45a12.53,12.53,0,0,1,4.56.77,10.61,10.61,0,0,1,3.48,2.14,9.07,9.07,0,0,1,2.25,3.29,11.11,11.11,0,0,1,.77,4.18V23.12A11.16,11.16,0,0,1,728.38,27.31Zm-25-1.17h12.4a4.62,4.62,0,0,0,3.35-1.31,4.13,4.13,0,0,0,1.34-3V13.07A4.16,4.16,0,0,0,719.1,10a4.62,4.62,0,0,0-3.35-1.3h-12.4Z"/>
    <path class="cls-4" d="M775.41,1.45a10.61,10.61,0,0,1,3.48,2.14,9.19,9.19,0,0,1,2.25,3.29,11.14,11.14,0,0,1,.77,4.18V38.54a11.2,11.2,0,0,1-.77,4.19A9.24,9.24,0,0,1,778.89,46a10.61,10.61,0,0,1-3.48,2.14,12.53,12.53,0,0,1-4.56.77H756.11a12.63,12.63,0,0,1-4.53-.77A10.54,10.54,0,0,1,748.07,46a9.12,9.12,0,0,1-2.25-3.28,11.2,11.2,0,0,1-.77-4.19V11.06a11.14,11.14,0,0,1,.77-4.18,9.07,9.07,0,0,1,2.25-3.29,10.54,10.54,0,0,1,3.51-2.14,12.63,12.63,0,0,1,4.53-.77h14.74A12.53,12.53,0,0,1,775.41,1.45ZM755.1,9.35a4.16,4.16,0,0,0-1.34,3.05V37.2a4.16,4.16,0,0,0,1.34,3,4.62,4.62,0,0,0,3.35,1.3h10.06a4.63,4.63,0,0,0,3.35-1.3,4.16,4.16,0,0,0,1.34-3V12.4a4.16,4.16,0,0,0-1.34-3.05,4.63,4.63,0,0,0-3.35-1.3H758.45A4.62,4.62,0,0,0,755.1,9.35Z"/>
    <path class="cls-4" d="M807.57,1.35V40.88h22.78v7.37H798.86V1.35Z"/>
    <path class="cls-4" d="M845.9,1.35h32.17v5l-2.35,2.35H854.61V20.78H871.7v7.37H854.61V40.88h23.46v7.37H845.9Z"/>
  </g>
</svg>
